G75*
%MOIN*%
%OFA0B0*%
%FSLAX25Y25*%
%IPPOS*%
%LPD*%
%AMOC8*
5,1,8,0,0,1.08239X$1,22.5*
%
%ADD10C,0.01000*%
%ADD11C,0.00000*%
%ADD12R,0.05906X0.05118*%
%ADD13R,0.10000X0.10000*%
%ADD14R,0.03150X0.03543*%
%ADD15R,0.02756X0.04724*%
D10*
X0044800Y0019300D02*
X0321750Y0019300D01*
X0321750Y0237800D01*
X0044800Y0237800D01*
X0044800Y0019300D01*
D11*
X0197394Y0032300D02*
X0197396Y0032453D01*
X0197402Y0032607D01*
X0197412Y0032760D01*
X0197426Y0032912D01*
X0197444Y0033065D01*
X0197466Y0033216D01*
X0197491Y0033367D01*
X0197521Y0033518D01*
X0197555Y0033668D01*
X0197592Y0033816D01*
X0197633Y0033964D01*
X0197678Y0034110D01*
X0197727Y0034256D01*
X0197780Y0034400D01*
X0197836Y0034542D01*
X0197896Y0034683D01*
X0197960Y0034823D01*
X0198027Y0034961D01*
X0198098Y0035097D01*
X0198173Y0035231D01*
X0198250Y0035363D01*
X0198332Y0035493D01*
X0198416Y0035621D01*
X0198504Y0035747D01*
X0198595Y0035870D01*
X0198689Y0035991D01*
X0198787Y0036109D01*
X0198887Y0036225D01*
X0198991Y0036338D01*
X0199097Y0036449D01*
X0199206Y0036557D01*
X0199318Y0036662D01*
X0199432Y0036763D01*
X0199550Y0036862D01*
X0199669Y0036958D01*
X0199791Y0037051D01*
X0199916Y0037140D01*
X0200043Y0037227D01*
X0200172Y0037309D01*
X0200303Y0037389D01*
X0200436Y0037465D01*
X0200571Y0037538D01*
X0200708Y0037607D01*
X0200847Y0037672D01*
X0200987Y0037734D01*
X0201129Y0037792D01*
X0201272Y0037847D01*
X0201417Y0037898D01*
X0201563Y0037945D01*
X0201710Y0037988D01*
X0201858Y0038027D01*
X0202007Y0038063D01*
X0202157Y0038094D01*
X0202308Y0038122D01*
X0202459Y0038146D01*
X0202612Y0038166D01*
X0202764Y0038182D01*
X0202917Y0038194D01*
X0203070Y0038202D01*
X0203223Y0038206D01*
X0203377Y0038206D01*
X0203530Y0038202D01*
X0203683Y0038194D01*
X0203836Y0038182D01*
X0203988Y0038166D01*
X0204141Y0038146D01*
X0204292Y0038122D01*
X0204443Y0038094D01*
X0204593Y0038063D01*
X0204742Y0038027D01*
X0204890Y0037988D01*
X0205037Y0037945D01*
X0205183Y0037898D01*
X0205328Y0037847D01*
X0205471Y0037792D01*
X0205613Y0037734D01*
X0205753Y0037672D01*
X0205892Y0037607D01*
X0206029Y0037538D01*
X0206164Y0037465D01*
X0206297Y0037389D01*
X0206428Y0037309D01*
X0206557Y0037227D01*
X0206684Y0037140D01*
X0206809Y0037051D01*
X0206931Y0036958D01*
X0207050Y0036862D01*
X0207168Y0036763D01*
X0207282Y0036662D01*
X0207394Y0036557D01*
X0207503Y0036449D01*
X0207609Y0036338D01*
X0207713Y0036225D01*
X0207813Y0036109D01*
X0207911Y0035991D01*
X0208005Y0035870D01*
X0208096Y0035747D01*
X0208184Y0035621D01*
X0208268Y0035493D01*
X0208350Y0035363D01*
X0208427Y0035231D01*
X0208502Y0035097D01*
X0208573Y0034961D01*
X0208640Y0034823D01*
X0208704Y0034683D01*
X0208764Y0034542D01*
X0208820Y0034400D01*
X0208873Y0034256D01*
X0208922Y0034110D01*
X0208967Y0033964D01*
X0209008Y0033816D01*
X0209045Y0033668D01*
X0209079Y0033518D01*
X0209109Y0033367D01*
X0209134Y0033216D01*
X0209156Y0033065D01*
X0209174Y0032912D01*
X0209188Y0032760D01*
X0209198Y0032607D01*
X0209204Y0032453D01*
X0209206Y0032300D01*
X0209204Y0032147D01*
X0209198Y0031993D01*
X0209188Y0031840D01*
X0209174Y0031688D01*
X0209156Y0031535D01*
X0209134Y0031384D01*
X0209109Y0031233D01*
X0209079Y0031082D01*
X0209045Y0030932D01*
X0209008Y0030784D01*
X0208967Y0030636D01*
X0208922Y0030490D01*
X0208873Y0030344D01*
X0208820Y0030200D01*
X0208764Y0030058D01*
X0208704Y0029917D01*
X0208640Y0029777D01*
X0208573Y0029639D01*
X0208502Y0029503D01*
X0208427Y0029369D01*
X0208350Y0029237D01*
X0208268Y0029107D01*
X0208184Y0028979D01*
X0208096Y0028853D01*
X0208005Y0028730D01*
X0207911Y0028609D01*
X0207813Y0028491D01*
X0207713Y0028375D01*
X0207609Y0028262D01*
X0207503Y0028151D01*
X0207394Y0028043D01*
X0207282Y0027938D01*
X0207168Y0027837D01*
X0207050Y0027738D01*
X0206931Y0027642D01*
X0206809Y0027549D01*
X0206684Y0027460D01*
X0206557Y0027373D01*
X0206428Y0027291D01*
X0206297Y0027211D01*
X0206164Y0027135D01*
X0206029Y0027062D01*
X0205892Y0026993D01*
X0205753Y0026928D01*
X0205613Y0026866D01*
X0205471Y0026808D01*
X0205328Y0026753D01*
X0205183Y0026702D01*
X0205037Y0026655D01*
X0204890Y0026612D01*
X0204742Y0026573D01*
X0204593Y0026537D01*
X0204443Y0026506D01*
X0204292Y0026478D01*
X0204141Y0026454D01*
X0203988Y0026434D01*
X0203836Y0026418D01*
X0203683Y0026406D01*
X0203530Y0026398D01*
X0203377Y0026394D01*
X0203223Y0026394D01*
X0203070Y0026398D01*
X0202917Y0026406D01*
X0202764Y0026418D01*
X0202612Y0026434D01*
X0202459Y0026454D01*
X0202308Y0026478D01*
X0202157Y0026506D01*
X0202007Y0026537D01*
X0201858Y0026573D01*
X0201710Y0026612D01*
X0201563Y0026655D01*
X0201417Y0026702D01*
X0201272Y0026753D01*
X0201129Y0026808D01*
X0200987Y0026866D01*
X0200847Y0026928D01*
X0200708Y0026993D01*
X0200571Y0027062D01*
X0200436Y0027135D01*
X0200303Y0027211D01*
X0200172Y0027291D01*
X0200043Y0027373D01*
X0199916Y0027460D01*
X0199791Y0027549D01*
X0199669Y0027642D01*
X0199550Y0027738D01*
X0199432Y0027837D01*
X0199318Y0027938D01*
X0199206Y0028043D01*
X0199097Y0028151D01*
X0198991Y0028262D01*
X0198887Y0028375D01*
X0198787Y0028491D01*
X0198689Y0028609D01*
X0198595Y0028730D01*
X0198504Y0028853D01*
X0198416Y0028979D01*
X0198332Y0029107D01*
X0198250Y0029237D01*
X0198173Y0029369D01*
X0198098Y0029503D01*
X0198027Y0029639D01*
X0197960Y0029777D01*
X0197896Y0029917D01*
X0197836Y0030058D01*
X0197780Y0030200D01*
X0197727Y0030344D01*
X0197678Y0030490D01*
X0197633Y0030636D01*
X0197592Y0030784D01*
X0197555Y0030932D01*
X0197521Y0031082D01*
X0197491Y0031233D01*
X0197466Y0031384D01*
X0197444Y0031535D01*
X0197426Y0031688D01*
X0197412Y0031840D01*
X0197402Y0031993D01*
X0197396Y0032147D01*
X0197394Y0032300D01*
X0304394Y0226800D02*
X0304396Y0226953D01*
X0304402Y0227107D01*
X0304412Y0227260D01*
X0304426Y0227412D01*
X0304444Y0227565D01*
X0304466Y0227716D01*
X0304491Y0227867D01*
X0304521Y0228018D01*
X0304555Y0228168D01*
X0304592Y0228316D01*
X0304633Y0228464D01*
X0304678Y0228610D01*
X0304727Y0228756D01*
X0304780Y0228900D01*
X0304836Y0229042D01*
X0304896Y0229183D01*
X0304960Y0229323D01*
X0305027Y0229461D01*
X0305098Y0229597D01*
X0305173Y0229731D01*
X0305250Y0229863D01*
X0305332Y0229993D01*
X0305416Y0230121D01*
X0305504Y0230247D01*
X0305595Y0230370D01*
X0305689Y0230491D01*
X0305787Y0230609D01*
X0305887Y0230725D01*
X0305991Y0230838D01*
X0306097Y0230949D01*
X0306206Y0231057D01*
X0306318Y0231162D01*
X0306432Y0231263D01*
X0306550Y0231362D01*
X0306669Y0231458D01*
X0306791Y0231551D01*
X0306916Y0231640D01*
X0307043Y0231727D01*
X0307172Y0231809D01*
X0307303Y0231889D01*
X0307436Y0231965D01*
X0307571Y0232038D01*
X0307708Y0232107D01*
X0307847Y0232172D01*
X0307987Y0232234D01*
X0308129Y0232292D01*
X0308272Y0232347D01*
X0308417Y0232398D01*
X0308563Y0232445D01*
X0308710Y0232488D01*
X0308858Y0232527D01*
X0309007Y0232563D01*
X0309157Y0232594D01*
X0309308Y0232622D01*
X0309459Y0232646D01*
X0309612Y0232666D01*
X0309764Y0232682D01*
X0309917Y0232694D01*
X0310070Y0232702D01*
X0310223Y0232706D01*
X0310377Y0232706D01*
X0310530Y0232702D01*
X0310683Y0232694D01*
X0310836Y0232682D01*
X0310988Y0232666D01*
X0311141Y0232646D01*
X0311292Y0232622D01*
X0311443Y0232594D01*
X0311593Y0232563D01*
X0311742Y0232527D01*
X0311890Y0232488D01*
X0312037Y0232445D01*
X0312183Y0232398D01*
X0312328Y0232347D01*
X0312471Y0232292D01*
X0312613Y0232234D01*
X0312753Y0232172D01*
X0312892Y0232107D01*
X0313029Y0232038D01*
X0313164Y0231965D01*
X0313297Y0231889D01*
X0313428Y0231809D01*
X0313557Y0231727D01*
X0313684Y0231640D01*
X0313809Y0231551D01*
X0313931Y0231458D01*
X0314050Y0231362D01*
X0314168Y0231263D01*
X0314282Y0231162D01*
X0314394Y0231057D01*
X0314503Y0230949D01*
X0314609Y0230838D01*
X0314713Y0230725D01*
X0314813Y0230609D01*
X0314911Y0230491D01*
X0315005Y0230370D01*
X0315096Y0230247D01*
X0315184Y0230121D01*
X0315268Y0229993D01*
X0315350Y0229863D01*
X0315427Y0229731D01*
X0315502Y0229597D01*
X0315573Y0229461D01*
X0315640Y0229323D01*
X0315704Y0229183D01*
X0315764Y0229042D01*
X0315820Y0228900D01*
X0315873Y0228756D01*
X0315922Y0228610D01*
X0315967Y0228464D01*
X0316008Y0228316D01*
X0316045Y0228168D01*
X0316079Y0228018D01*
X0316109Y0227867D01*
X0316134Y0227716D01*
X0316156Y0227565D01*
X0316174Y0227412D01*
X0316188Y0227260D01*
X0316198Y0227107D01*
X0316204Y0226953D01*
X0316206Y0226800D01*
X0316204Y0226647D01*
X0316198Y0226493D01*
X0316188Y0226340D01*
X0316174Y0226188D01*
X0316156Y0226035D01*
X0316134Y0225884D01*
X0316109Y0225733D01*
X0316079Y0225582D01*
X0316045Y0225432D01*
X0316008Y0225284D01*
X0315967Y0225136D01*
X0315922Y0224990D01*
X0315873Y0224844D01*
X0315820Y0224700D01*
X0315764Y0224558D01*
X0315704Y0224417D01*
X0315640Y0224277D01*
X0315573Y0224139D01*
X0315502Y0224003D01*
X0315427Y0223869D01*
X0315350Y0223737D01*
X0315268Y0223607D01*
X0315184Y0223479D01*
X0315096Y0223353D01*
X0315005Y0223230D01*
X0314911Y0223109D01*
X0314813Y0222991D01*
X0314713Y0222875D01*
X0314609Y0222762D01*
X0314503Y0222651D01*
X0314394Y0222543D01*
X0314282Y0222438D01*
X0314168Y0222337D01*
X0314050Y0222238D01*
X0313931Y0222142D01*
X0313809Y0222049D01*
X0313684Y0221960D01*
X0313557Y0221873D01*
X0313428Y0221791D01*
X0313297Y0221711D01*
X0313164Y0221635D01*
X0313029Y0221562D01*
X0312892Y0221493D01*
X0312753Y0221428D01*
X0312613Y0221366D01*
X0312471Y0221308D01*
X0312328Y0221253D01*
X0312183Y0221202D01*
X0312037Y0221155D01*
X0311890Y0221112D01*
X0311742Y0221073D01*
X0311593Y0221037D01*
X0311443Y0221006D01*
X0311292Y0220978D01*
X0311141Y0220954D01*
X0310988Y0220934D01*
X0310836Y0220918D01*
X0310683Y0220906D01*
X0310530Y0220898D01*
X0310377Y0220894D01*
X0310223Y0220894D01*
X0310070Y0220898D01*
X0309917Y0220906D01*
X0309764Y0220918D01*
X0309612Y0220934D01*
X0309459Y0220954D01*
X0309308Y0220978D01*
X0309157Y0221006D01*
X0309007Y0221037D01*
X0308858Y0221073D01*
X0308710Y0221112D01*
X0308563Y0221155D01*
X0308417Y0221202D01*
X0308272Y0221253D01*
X0308129Y0221308D01*
X0307987Y0221366D01*
X0307847Y0221428D01*
X0307708Y0221493D01*
X0307571Y0221562D01*
X0307436Y0221635D01*
X0307303Y0221711D01*
X0307172Y0221791D01*
X0307043Y0221873D01*
X0306916Y0221960D01*
X0306791Y0222049D01*
X0306669Y0222142D01*
X0306550Y0222238D01*
X0306432Y0222337D01*
X0306318Y0222438D01*
X0306206Y0222543D01*
X0306097Y0222651D01*
X0305991Y0222762D01*
X0305887Y0222875D01*
X0305787Y0222991D01*
X0305689Y0223109D01*
X0305595Y0223230D01*
X0305504Y0223353D01*
X0305416Y0223479D01*
X0305332Y0223607D01*
X0305250Y0223737D01*
X0305173Y0223869D01*
X0305098Y0224003D01*
X0305027Y0224139D01*
X0304960Y0224277D01*
X0304896Y0224417D01*
X0304836Y0224558D01*
X0304780Y0224700D01*
X0304727Y0224844D01*
X0304678Y0224990D01*
X0304633Y0225136D01*
X0304592Y0225284D01*
X0304555Y0225432D01*
X0304521Y0225582D01*
X0304491Y0225733D01*
X0304466Y0225884D01*
X0304444Y0226035D01*
X0304426Y0226188D01*
X0304412Y0226340D01*
X0304402Y0226493D01*
X0304396Y0226647D01*
X0304394Y0226800D01*
D12*
X0184800Y0116540D03*
X0184800Y0109060D03*
X0243800Y0106540D03*
X0243800Y0099060D03*
X0259800Y0099060D03*
X0259800Y0106540D03*
X0276800Y0106540D03*
X0276800Y0099060D03*
X0276800Y0078540D03*
X0276800Y0071060D03*
X0259800Y0071060D03*
X0259800Y0078540D03*
X0243800Y0078540D03*
X0243800Y0071060D03*
X0184800Y0050540D03*
X0184800Y0043060D03*
D13*
X0206800Y0061550D03*
X0206800Y0080050D03*
X0206800Y0097550D03*
X0206800Y0116050D03*
D14*
X0223060Y0120863D03*
X0230540Y0120863D03*
X0226800Y0129131D03*
X0226800Y0057131D03*
X0223060Y0048863D03*
X0230540Y0048863D03*
D15*
X0228800Y0067517D03*
X0228800Y0082083D03*
X0228800Y0094517D03*
X0228800Y0109083D03*
M02*
