G75*
%MOIN*%
%OFA0B0*%
%FSLAX25Y25*%
%IPPOS*%
%LPD*%
%AMOC8*
5,1,8,0,0,1.08239X$1,22.5*
%
%ADD10C,0.01000*%
%ADD11C,0.07300*%
%ADD12C,0.00000*%
%ADD13C,0.06600*%
%ADD14R,0.05906X0.05118*%
%ADD15C,0.07400*%
%ADD16C,0.06537*%
%ADD17OC8,0.05750*%
%ADD18R,0.10000X0.10000*%
%ADD19R,0.03150X0.03543*%
%ADD20R,0.02756X0.04724*%
%ADD21OC8,0.06600*%
%ADD22C,0.09843*%
%ADD23R,0.06500X0.06500*%
%ADD24C,0.06500*%
%ADD25C,0.10500*%
%ADD26C,0.08600*%
%ADD27C,0.01600*%
%ADD28C,0.04400*%
%ADD29C,0.09500*%
D10*
X0044800Y0019300D02*
X0321750Y0019300D01*
X0321750Y0237800D01*
X0044800Y0237800D01*
X0044800Y0019300D01*
X0121300Y0044300D02*
X0121800Y0043800D01*
X0151800Y0071800D02*
X0183800Y0071800D01*
X0198800Y0071800D01*
X0206800Y0079800D01*
X0206800Y0080050D01*
X0206800Y0079800D02*
X0226800Y0059800D01*
X0226800Y0057131D01*
X0225800Y0052800D02*
X0223800Y0050800D01*
X0223800Y0049800D01*
X0223060Y0048863D01*
X0225800Y0052800D02*
X0228800Y0052800D01*
X0243800Y0067800D01*
X0243800Y0070800D01*
X0247800Y0070800D01*
X0254800Y0077800D01*
X0259060Y0077800D01*
X0259800Y0078540D01*
X0259800Y0077800D01*
X0259800Y0071800D02*
X0264800Y0071800D01*
X0266800Y0073800D01*
X0266800Y0089060D01*
X0276800Y0099060D01*
X0275430Y0100430D01*
X0271170Y0100430D01*
X0265800Y0105800D01*
X0260540Y0105800D01*
X0259800Y0106540D01*
X0259800Y0106800D01*
X0245800Y0120800D01*
X0230800Y0120800D01*
X0230540Y0120863D01*
X0230800Y0121800D01*
X0230800Y0144800D01*
X0183800Y0191800D01*
X0180800Y0191800D01*
X0168800Y0203800D01*
X0168300Y0203800D01*
X0183800Y0151800D02*
X0186800Y0151800D01*
X0216800Y0121800D01*
X0216800Y0118800D01*
X0226517Y0109083D01*
X0228800Y0109083D01*
X0228800Y0109800D01*
X0237800Y0106800D02*
X0243800Y0106800D01*
X0245800Y0104800D01*
X0250800Y0104800D01*
X0256540Y0099060D01*
X0259800Y0099060D01*
X0259800Y0099800D01*
X0275060Y0100800D02*
X0275430Y0100430D01*
X0276800Y0106540D02*
X0276800Y0106800D01*
X0281800Y0111800D01*
X0281800Y0133800D01*
X0273800Y0141800D01*
X0285800Y0149800D02*
X0285800Y0111800D01*
X0299800Y0097800D01*
X0299800Y0044800D01*
X0303800Y0038800D02*
X0309800Y0044800D01*
X0303800Y0038800D02*
X0271800Y0038800D01*
X0266800Y0043800D01*
X0260800Y0049800D01*
X0259800Y0049800D01*
X0259800Y0071060D01*
X0259800Y0071800D01*
X0243800Y0071060D02*
X0243800Y0070800D01*
X0243800Y0078800D02*
X0232800Y0067800D01*
X0228800Y0067800D01*
X0228800Y0067517D01*
X0243800Y0078540D02*
X0243800Y0078800D01*
X0228800Y0082083D02*
X0221083Y0089800D01*
X0220800Y0089800D01*
X0228800Y0094517D02*
X0228800Y0094800D01*
X0239800Y0094800D01*
X0243800Y0098800D01*
X0243800Y0099060D01*
X0243800Y0106540D02*
X0243800Y0106800D01*
X0237800Y0106800D02*
X0223800Y0120800D01*
X0223060Y0120863D01*
X0226469Y0129131D02*
X0226800Y0129131D01*
X0226469Y0129131D02*
X0219800Y0135800D01*
X0211800Y0135800D01*
X0199050Y0123800D02*
X0193800Y0123800D01*
X0126096Y0123800D01*
X0106474Y0143422D01*
X0183800Y0110060D02*
X0183800Y0095800D01*
X0183800Y0085800D02*
X0195800Y0097800D01*
X0195800Y0106800D01*
X0205050Y0116050D01*
X0206800Y0116050D01*
X0199050Y0123800D01*
X0206800Y0116050D02*
X0206800Y0114800D01*
X0184800Y0109060D02*
X0183800Y0110060D01*
X0206800Y0097550D02*
X0206800Y0096800D01*
X0206800Y0061550D02*
X0205800Y0059800D01*
X0206800Y0060800D01*
X0206800Y0061550D01*
X0184800Y0059800D02*
X0184800Y0050540D01*
X0184800Y0043800D02*
X0184800Y0043060D01*
X0184800Y0059800D02*
X0183800Y0061800D01*
X0151800Y0071800D02*
X0146800Y0076800D01*
X0106800Y0076800D01*
X0106674Y0077622D01*
X0230540Y0048863D02*
X0230800Y0049800D01*
X0259800Y0049800D01*
X0276800Y0078540D02*
X0276800Y0078800D01*
X0291800Y0093800D01*
X0303800Y0126800D02*
X0289800Y0140800D01*
X0289800Y0167800D01*
X0275800Y0181800D01*
X0273800Y0181800D01*
X0273800Y0161800D02*
X0285800Y0149800D01*
X0303800Y0136800D02*
X0308800Y0141800D01*
X0308800Y0158800D01*
X0308800Y0179800D01*
D11*
X0074950Y0141840D02*
X0067650Y0141840D01*
X0067650Y0121840D02*
X0074950Y0121840D01*
X0074950Y0101800D02*
X0067650Y0101800D01*
X0067650Y0081800D02*
X0074950Y0081800D01*
X0074950Y0061800D02*
X0067650Y0061800D01*
X0067650Y0041800D02*
X0074950Y0041800D01*
D12*
X0197394Y0032300D02*
X0197396Y0032453D01*
X0197402Y0032607D01*
X0197412Y0032760D01*
X0197426Y0032912D01*
X0197444Y0033065D01*
X0197466Y0033216D01*
X0197491Y0033367D01*
X0197521Y0033518D01*
X0197555Y0033668D01*
X0197592Y0033816D01*
X0197633Y0033964D01*
X0197678Y0034110D01*
X0197727Y0034256D01*
X0197780Y0034400D01*
X0197836Y0034542D01*
X0197896Y0034683D01*
X0197960Y0034823D01*
X0198027Y0034961D01*
X0198098Y0035097D01*
X0198173Y0035231D01*
X0198250Y0035363D01*
X0198332Y0035493D01*
X0198416Y0035621D01*
X0198504Y0035747D01*
X0198595Y0035870D01*
X0198689Y0035991D01*
X0198787Y0036109D01*
X0198887Y0036225D01*
X0198991Y0036338D01*
X0199097Y0036449D01*
X0199206Y0036557D01*
X0199318Y0036662D01*
X0199432Y0036763D01*
X0199550Y0036862D01*
X0199669Y0036958D01*
X0199791Y0037051D01*
X0199916Y0037140D01*
X0200043Y0037227D01*
X0200172Y0037309D01*
X0200303Y0037389D01*
X0200436Y0037465D01*
X0200571Y0037538D01*
X0200708Y0037607D01*
X0200847Y0037672D01*
X0200987Y0037734D01*
X0201129Y0037792D01*
X0201272Y0037847D01*
X0201417Y0037898D01*
X0201563Y0037945D01*
X0201710Y0037988D01*
X0201858Y0038027D01*
X0202007Y0038063D01*
X0202157Y0038094D01*
X0202308Y0038122D01*
X0202459Y0038146D01*
X0202612Y0038166D01*
X0202764Y0038182D01*
X0202917Y0038194D01*
X0203070Y0038202D01*
X0203223Y0038206D01*
X0203377Y0038206D01*
X0203530Y0038202D01*
X0203683Y0038194D01*
X0203836Y0038182D01*
X0203988Y0038166D01*
X0204141Y0038146D01*
X0204292Y0038122D01*
X0204443Y0038094D01*
X0204593Y0038063D01*
X0204742Y0038027D01*
X0204890Y0037988D01*
X0205037Y0037945D01*
X0205183Y0037898D01*
X0205328Y0037847D01*
X0205471Y0037792D01*
X0205613Y0037734D01*
X0205753Y0037672D01*
X0205892Y0037607D01*
X0206029Y0037538D01*
X0206164Y0037465D01*
X0206297Y0037389D01*
X0206428Y0037309D01*
X0206557Y0037227D01*
X0206684Y0037140D01*
X0206809Y0037051D01*
X0206931Y0036958D01*
X0207050Y0036862D01*
X0207168Y0036763D01*
X0207282Y0036662D01*
X0207394Y0036557D01*
X0207503Y0036449D01*
X0207609Y0036338D01*
X0207713Y0036225D01*
X0207813Y0036109D01*
X0207911Y0035991D01*
X0208005Y0035870D01*
X0208096Y0035747D01*
X0208184Y0035621D01*
X0208268Y0035493D01*
X0208350Y0035363D01*
X0208427Y0035231D01*
X0208502Y0035097D01*
X0208573Y0034961D01*
X0208640Y0034823D01*
X0208704Y0034683D01*
X0208764Y0034542D01*
X0208820Y0034400D01*
X0208873Y0034256D01*
X0208922Y0034110D01*
X0208967Y0033964D01*
X0209008Y0033816D01*
X0209045Y0033668D01*
X0209079Y0033518D01*
X0209109Y0033367D01*
X0209134Y0033216D01*
X0209156Y0033065D01*
X0209174Y0032912D01*
X0209188Y0032760D01*
X0209198Y0032607D01*
X0209204Y0032453D01*
X0209206Y0032300D01*
X0209204Y0032147D01*
X0209198Y0031993D01*
X0209188Y0031840D01*
X0209174Y0031688D01*
X0209156Y0031535D01*
X0209134Y0031384D01*
X0209109Y0031233D01*
X0209079Y0031082D01*
X0209045Y0030932D01*
X0209008Y0030784D01*
X0208967Y0030636D01*
X0208922Y0030490D01*
X0208873Y0030344D01*
X0208820Y0030200D01*
X0208764Y0030058D01*
X0208704Y0029917D01*
X0208640Y0029777D01*
X0208573Y0029639D01*
X0208502Y0029503D01*
X0208427Y0029369D01*
X0208350Y0029237D01*
X0208268Y0029107D01*
X0208184Y0028979D01*
X0208096Y0028853D01*
X0208005Y0028730D01*
X0207911Y0028609D01*
X0207813Y0028491D01*
X0207713Y0028375D01*
X0207609Y0028262D01*
X0207503Y0028151D01*
X0207394Y0028043D01*
X0207282Y0027938D01*
X0207168Y0027837D01*
X0207050Y0027738D01*
X0206931Y0027642D01*
X0206809Y0027549D01*
X0206684Y0027460D01*
X0206557Y0027373D01*
X0206428Y0027291D01*
X0206297Y0027211D01*
X0206164Y0027135D01*
X0206029Y0027062D01*
X0205892Y0026993D01*
X0205753Y0026928D01*
X0205613Y0026866D01*
X0205471Y0026808D01*
X0205328Y0026753D01*
X0205183Y0026702D01*
X0205037Y0026655D01*
X0204890Y0026612D01*
X0204742Y0026573D01*
X0204593Y0026537D01*
X0204443Y0026506D01*
X0204292Y0026478D01*
X0204141Y0026454D01*
X0203988Y0026434D01*
X0203836Y0026418D01*
X0203683Y0026406D01*
X0203530Y0026398D01*
X0203377Y0026394D01*
X0203223Y0026394D01*
X0203070Y0026398D01*
X0202917Y0026406D01*
X0202764Y0026418D01*
X0202612Y0026434D01*
X0202459Y0026454D01*
X0202308Y0026478D01*
X0202157Y0026506D01*
X0202007Y0026537D01*
X0201858Y0026573D01*
X0201710Y0026612D01*
X0201563Y0026655D01*
X0201417Y0026702D01*
X0201272Y0026753D01*
X0201129Y0026808D01*
X0200987Y0026866D01*
X0200847Y0026928D01*
X0200708Y0026993D01*
X0200571Y0027062D01*
X0200436Y0027135D01*
X0200303Y0027211D01*
X0200172Y0027291D01*
X0200043Y0027373D01*
X0199916Y0027460D01*
X0199791Y0027549D01*
X0199669Y0027642D01*
X0199550Y0027738D01*
X0199432Y0027837D01*
X0199318Y0027938D01*
X0199206Y0028043D01*
X0199097Y0028151D01*
X0198991Y0028262D01*
X0198887Y0028375D01*
X0198787Y0028491D01*
X0198689Y0028609D01*
X0198595Y0028730D01*
X0198504Y0028853D01*
X0198416Y0028979D01*
X0198332Y0029107D01*
X0198250Y0029237D01*
X0198173Y0029369D01*
X0198098Y0029503D01*
X0198027Y0029639D01*
X0197960Y0029777D01*
X0197896Y0029917D01*
X0197836Y0030058D01*
X0197780Y0030200D01*
X0197727Y0030344D01*
X0197678Y0030490D01*
X0197633Y0030636D01*
X0197592Y0030784D01*
X0197555Y0030932D01*
X0197521Y0031082D01*
X0197491Y0031233D01*
X0197466Y0031384D01*
X0197444Y0031535D01*
X0197426Y0031688D01*
X0197412Y0031840D01*
X0197402Y0031993D01*
X0197396Y0032147D01*
X0197394Y0032300D01*
X0304394Y0226800D02*
X0304396Y0226953D01*
X0304402Y0227107D01*
X0304412Y0227260D01*
X0304426Y0227412D01*
X0304444Y0227565D01*
X0304466Y0227716D01*
X0304491Y0227867D01*
X0304521Y0228018D01*
X0304555Y0228168D01*
X0304592Y0228316D01*
X0304633Y0228464D01*
X0304678Y0228610D01*
X0304727Y0228756D01*
X0304780Y0228900D01*
X0304836Y0229042D01*
X0304896Y0229183D01*
X0304960Y0229323D01*
X0305027Y0229461D01*
X0305098Y0229597D01*
X0305173Y0229731D01*
X0305250Y0229863D01*
X0305332Y0229993D01*
X0305416Y0230121D01*
X0305504Y0230247D01*
X0305595Y0230370D01*
X0305689Y0230491D01*
X0305787Y0230609D01*
X0305887Y0230725D01*
X0305991Y0230838D01*
X0306097Y0230949D01*
X0306206Y0231057D01*
X0306318Y0231162D01*
X0306432Y0231263D01*
X0306550Y0231362D01*
X0306669Y0231458D01*
X0306791Y0231551D01*
X0306916Y0231640D01*
X0307043Y0231727D01*
X0307172Y0231809D01*
X0307303Y0231889D01*
X0307436Y0231965D01*
X0307571Y0232038D01*
X0307708Y0232107D01*
X0307847Y0232172D01*
X0307987Y0232234D01*
X0308129Y0232292D01*
X0308272Y0232347D01*
X0308417Y0232398D01*
X0308563Y0232445D01*
X0308710Y0232488D01*
X0308858Y0232527D01*
X0309007Y0232563D01*
X0309157Y0232594D01*
X0309308Y0232622D01*
X0309459Y0232646D01*
X0309612Y0232666D01*
X0309764Y0232682D01*
X0309917Y0232694D01*
X0310070Y0232702D01*
X0310223Y0232706D01*
X0310377Y0232706D01*
X0310530Y0232702D01*
X0310683Y0232694D01*
X0310836Y0232682D01*
X0310988Y0232666D01*
X0311141Y0232646D01*
X0311292Y0232622D01*
X0311443Y0232594D01*
X0311593Y0232563D01*
X0311742Y0232527D01*
X0311890Y0232488D01*
X0312037Y0232445D01*
X0312183Y0232398D01*
X0312328Y0232347D01*
X0312471Y0232292D01*
X0312613Y0232234D01*
X0312753Y0232172D01*
X0312892Y0232107D01*
X0313029Y0232038D01*
X0313164Y0231965D01*
X0313297Y0231889D01*
X0313428Y0231809D01*
X0313557Y0231727D01*
X0313684Y0231640D01*
X0313809Y0231551D01*
X0313931Y0231458D01*
X0314050Y0231362D01*
X0314168Y0231263D01*
X0314282Y0231162D01*
X0314394Y0231057D01*
X0314503Y0230949D01*
X0314609Y0230838D01*
X0314713Y0230725D01*
X0314813Y0230609D01*
X0314911Y0230491D01*
X0315005Y0230370D01*
X0315096Y0230247D01*
X0315184Y0230121D01*
X0315268Y0229993D01*
X0315350Y0229863D01*
X0315427Y0229731D01*
X0315502Y0229597D01*
X0315573Y0229461D01*
X0315640Y0229323D01*
X0315704Y0229183D01*
X0315764Y0229042D01*
X0315820Y0228900D01*
X0315873Y0228756D01*
X0315922Y0228610D01*
X0315967Y0228464D01*
X0316008Y0228316D01*
X0316045Y0228168D01*
X0316079Y0228018D01*
X0316109Y0227867D01*
X0316134Y0227716D01*
X0316156Y0227565D01*
X0316174Y0227412D01*
X0316188Y0227260D01*
X0316198Y0227107D01*
X0316204Y0226953D01*
X0316206Y0226800D01*
X0316204Y0226647D01*
X0316198Y0226493D01*
X0316188Y0226340D01*
X0316174Y0226188D01*
X0316156Y0226035D01*
X0316134Y0225884D01*
X0316109Y0225733D01*
X0316079Y0225582D01*
X0316045Y0225432D01*
X0316008Y0225284D01*
X0315967Y0225136D01*
X0315922Y0224990D01*
X0315873Y0224844D01*
X0315820Y0224700D01*
X0315764Y0224558D01*
X0315704Y0224417D01*
X0315640Y0224277D01*
X0315573Y0224139D01*
X0315502Y0224003D01*
X0315427Y0223869D01*
X0315350Y0223737D01*
X0315268Y0223607D01*
X0315184Y0223479D01*
X0315096Y0223353D01*
X0315005Y0223230D01*
X0314911Y0223109D01*
X0314813Y0222991D01*
X0314713Y0222875D01*
X0314609Y0222762D01*
X0314503Y0222651D01*
X0314394Y0222543D01*
X0314282Y0222438D01*
X0314168Y0222337D01*
X0314050Y0222238D01*
X0313931Y0222142D01*
X0313809Y0222049D01*
X0313684Y0221960D01*
X0313557Y0221873D01*
X0313428Y0221791D01*
X0313297Y0221711D01*
X0313164Y0221635D01*
X0313029Y0221562D01*
X0312892Y0221493D01*
X0312753Y0221428D01*
X0312613Y0221366D01*
X0312471Y0221308D01*
X0312328Y0221253D01*
X0312183Y0221202D01*
X0312037Y0221155D01*
X0311890Y0221112D01*
X0311742Y0221073D01*
X0311593Y0221037D01*
X0311443Y0221006D01*
X0311292Y0220978D01*
X0311141Y0220954D01*
X0310988Y0220934D01*
X0310836Y0220918D01*
X0310683Y0220906D01*
X0310530Y0220898D01*
X0310377Y0220894D01*
X0310223Y0220894D01*
X0310070Y0220898D01*
X0309917Y0220906D01*
X0309764Y0220918D01*
X0309612Y0220934D01*
X0309459Y0220954D01*
X0309308Y0220978D01*
X0309157Y0221006D01*
X0309007Y0221037D01*
X0308858Y0221073D01*
X0308710Y0221112D01*
X0308563Y0221155D01*
X0308417Y0221202D01*
X0308272Y0221253D01*
X0308129Y0221308D01*
X0307987Y0221366D01*
X0307847Y0221428D01*
X0307708Y0221493D01*
X0307571Y0221562D01*
X0307436Y0221635D01*
X0307303Y0221711D01*
X0307172Y0221791D01*
X0307043Y0221873D01*
X0306916Y0221960D01*
X0306791Y0222049D01*
X0306669Y0222142D01*
X0306550Y0222238D01*
X0306432Y0222337D01*
X0306318Y0222438D01*
X0306206Y0222543D01*
X0306097Y0222651D01*
X0305991Y0222762D01*
X0305887Y0222875D01*
X0305787Y0222991D01*
X0305689Y0223109D01*
X0305595Y0223230D01*
X0305504Y0223353D01*
X0305416Y0223479D01*
X0305332Y0223607D01*
X0305250Y0223737D01*
X0305173Y0223869D01*
X0305098Y0224003D01*
X0305027Y0224139D01*
X0304960Y0224277D01*
X0304896Y0224417D01*
X0304836Y0224558D01*
X0304780Y0224700D01*
X0304727Y0224844D01*
X0304678Y0224990D01*
X0304633Y0225136D01*
X0304592Y0225284D01*
X0304555Y0225432D01*
X0304521Y0225582D01*
X0304491Y0225733D01*
X0304466Y0225884D01*
X0304444Y0226035D01*
X0304426Y0226188D01*
X0304412Y0226340D01*
X0304402Y0226493D01*
X0304396Y0226647D01*
X0304394Y0226800D01*
D13*
X0302615Y0208800D03*
X0292772Y0208800D03*
D14*
X0184800Y0116540D03*
X0184800Y0109060D03*
X0243800Y0106540D03*
X0243800Y0099060D03*
X0259800Y0099060D03*
X0259800Y0106540D03*
X0276800Y0106540D03*
X0276800Y0099060D03*
X0276800Y0078540D03*
X0276800Y0071060D03*
X0259800Y0071060D03*
X0259800Y0078540D03*
X0243800Y0078540D03*
X0243800Y0071060D03*
X0184800Y0050540D03*
X0184800Y0043060D03*
D15*
X0246800Y0043800D03*
X0256800Y0043800D03*
X0266800Y0043800D03*
X0289800Y0044800D03*
X0299800Y0044800D03*
X0309800Y0044800D03*
X0303800Y0116800D03*
X0303800Y0126800D03*
X0303800Y0136800D03*
D16*
X0168300Y0163800D03*
X0168300Y0183800D03*
X0168300Y0203800D03*
X0060800Y0203800D03*
X0060800Y0223800D03*
D17*
X0183800Y0201800D03*
X0183800Y0191800D03*
X0183800Y0181800D03*
X0183800Y0171800D03*
X0183800Y0161800D03*
X0183800Y0151800D03*
X0183800Y0141800D03*
X0183800Y0131800D03*
X0273800Y0131800D03*
X0273800Y0141800D03*
X0273800Y0151800D03*
X0273800Y0161800D03*
X0273800Y0171800D03*
X0273800Y0181800D03*
X0273800Y0191800D03*
X0273800Y0201800D03*
D18*
X0206800Y0116050D03*
X0206800Y0097550D03*
X0206800Y0080050D03*
X0206800Y0061550D03*
D19*
X0226800Y0057131D03*
X0223060Y0048863D03*
X0230540Y0048863D03*
X0230540Y0120863D03*
X0223060Y0120863D03*
X0226800Y0129131D03*
D20*
X0228800Y0109083D03*
X0228800Y0094517D03*
X0228800Y0082083D03*
X0228800Y0067517D03*
D21*
X0183800Y0071800D03*
X0183800Y0061800D03*
X0183800Y0085800D03*
X0183800Y0095800D03*
X0291800Y0093800D03*
X0291800Y0083800D03*
D22*
X0154706Y0078409D03*
X0154506Y0096178D03*
X0106474Y0096178D03*
X0106674Y0077622D03*
X0098800Y0054000D03*
X0106674Y0030378D03*
X0154706Y0030378D03*
X0098600Y0119800D03*
X0106474Y0143422D03*
X0154506Y0144209D03*
D23*
X0298800Y0158800D03*
X0298800Y0179800D03*
D24*
X0308800Y0179800D03*
X0308800Y0158800D03*
D25*
X0098600Y0119800D02*
X0092800Y0127800D01*
X0089800Y0124800D02*
X0089900Y0062900D01*
X0098800Y0054000D01*
X0071300Y0041800D02*
X0064800Y0041800D01*
X0055800Y0050800D01*
X0055800Y0073800D01*
X0063800Y0081800D01*
X0054800Y0090800D01*
X0054800Y0132800D01*
X0063840Y0141840D01*
X0071300Y0141840D01*
X0069800Y0143340D02*
X0057800Y0154800D01*
X0057800Y0203800D01*
X0060800Y0203800D01*
X0060800Y0223800D02*
X0067800Y0223800D01*
X0089800Y0201700D01*
X0089800Y0130800D01*
X0080840Y0121840D01*
X0071300Y0121840D01*
D26*
X0089800Y0124800D02*
X0092800Y0127800D01*
X0089800Y0130800D01*
X0071300Y0141840D02*
X0069800Y0143340D01*
D27*
X0076303Y0148261D02*
X0065850Y0158243D01*
X0065850Y0197466D01*
X0067624Y0199240D01*
X0068850Y0202199D01*
X0068850Y0205401D01*
X0067624Y0208360D01*
X0065360Y0210624D01*
X0062401Y0211850D01*
X0056199Y0211850D01*
X0053240Y0210624D01*
X0050976Y0208360D01*
X0049750Y0205401D01*
X0049750Y0156305D01*
X0049715Y0156216D01*
X0049750Y0154707D01*
X0049750Y0153199D01*
X0049787Y0153110D01*
X0049789Y0153014D01*
X0050398Y0151634D01*
X0050976Y0150240D01*
X0051043Y0150172D01*
X0051082Y0150084D01*
X0052173Y0149042D01*
X0053240Y0147976D01*
X0053329Y0147939D01*
X0056002Y0145386D01*
X0050240Y0139624D01*
X0048100Y0137484D01*
X0048100Y0234500D01*
X0300147Y0234500D01*
X0298519Y0231680D01*
X0297657Y0228464D01*
X0297657Y0225136D01*
X0298519Y0221920D01*
X0300183Y0219037D01*
X0302537Y0216683D01*
X0305420Y0215019D01*
X0308636Y0214157D01*
X0311964Y0214157D01*
X0315180Y0215019D01*
X0318063Y0216683D01*
X0318450Y0217071D01*
X0318450Y0022600D01*
X0211479Y0022600D01*
X0213417Y0024537D01*
X0215081Y0027420D01*
X0215943Y0030636D01*
X0215943Y0033964D01*
X0215081Y0037180D01*
X0213417Y0040063D01*
X0211063Y0042417D01*
X0208180Y0044081D01*
X0204964Y0044943D01*
X0201636Y0044943D01*
X0198420Y0044081D01*
X0195537Y0042417D01*
X0193183Y0040063D01*
X0191519Y0037180D01*
X0190657Y0033964D01*
X0190657Y0030636D01*
X0191519Y0027420D01*
X0193183Y0024537D01*
X0195121Y0022600D01*
X0048100Y0022600D01*
X0048100Y0048354D01*
X0048976Y0046240D01*
X0060240Y0034976D01*
X0063199Y0033750D01*
X0072901Y0033750D01*
X0075860Y0034976D01*
X0076235Y0035351D01*
X0078604Y0036332D01*
X0080418Y0038146D01*
X0081400Y0040517D01*
X0081400Y0043083D01*
X0080418Y0045454D01*
X0078604Y0047268D01*
X0076235Y0048249D01*
X0075860Y0048624D01*
X0072901Y0049850D01*
X0068134Y0049850D01*
X0063850Y0054134D01*
X0063850Y0056478D01*
X0063996Y0056332D01*
X0066367Y0055350D01*
X0076233Y0055350D01*
X0078604Y0056332D01*
X0080418Y0058146D01*
X0081400Y0060517D01*
X0081400Y0063083D01*
X0080418Y0065454D01*
X0078604Y0067268D01*
X0076233Y0068250D01*
X0066367Y0068250D01*
X0063996Y0067268D01*
X0063850Y0067122D01*
X0063850Y0070466D01*
X0067634Y0074250D01*
X0072802Y0074250D01*
X0075457Y0075350D01*
X0076233Y0075350D01*
X0078604Y0076332D01*
X0080418Y0078146D01*
X0081400Y0080517D01*
X0081400Y0083083D01*
X0080418Y0085454D01*
X0078604Y0087268D01*
X0076233Y0088250D01*
X0075457Y0088250D01*
X0072802Y0089350D01*
X0067634Y0089350D01*
X0062850Y0094134D01*
X0062850Y0097478D01*
X0063996Y0096332D01*
X0066367Y0095350D01*
X0076233Y0095350D01*
X0078604Y0096332D01*
X0080418Y0098146D01*
X0081400Y0100517D01*
X0081400Y0103083D01*
X0080418Y0105454D01*
X0078604Y0107268D01*
X0076233Y0108250D01*
X0066367Y0108250D01*
X0063996Y0107268D01*
X0062850Y0106122D01*
X0062850Y0117518D01*
X0063996Y0116372D01*
X0066365Y0115391D01*
X0066740Y0115016D01*
X0069699Y0113790D01*
X0081768Y0113790D01*
X0081850Y0062893D01*
X0081850Y0061299D01*
X0081853Y0061293D01*
X0081853Y0061286D01*
X0082466Y0059811D01*
X0083076Y0058340D01*
X0083080Y0058335D01*
X0083083Y0058329D01*
X0084213Y0057202D01*
X0094240Y0047176D01*
X0097199Y0045950D01*
X0100401Y0045950D01*
X0103360Y0047176D01*
X0105624Y0049440D01*
X0106850Y0052399D01*
X0106850Y0055601D01*
X0105624Y0058560D01*
X0097945Y0066240D01*
X0097871Y0111765D01*
X0098914Y0111598D01*
X0102029Y0112343D01*
X0104621Y0114223D01*
X0106298Y0116951D01*
X0106802Y0120114D01*
X0106057Y0123229D01*
X0098377Y0133821D01*
X0097850Y0134145D01*
X0097850Y0201693D01*
X0097854Y0203283D01*
X0097850Y0203292D01*
X0097850Y0203301D01*
X0097240Y0204773D01*
X0096635Y0206244D01*
X0096628Y0206251D01*
X0096624Y0206260D01*
X0095498Y0207386D01*
X0074628Y0228351D01*
X0074624Y0228360D01*
X0073499Y0229486D01*
X0072375Y0230614D01*
X0072367Y0230618D01*
X0072360Y0230624D01*
X0070888Y0231234D01*
X0069419Y0231846D01*
X0069410Y0231846D01*
X0069401Y0231850D01*
X0067807Y0231850D01*
X0066217Y0231854D01*
X0066208Y0231850D01*
X0059199Y0231850D01*
X0056240Y0230624D01*
X0053976Y0228360D01*
X0052750Y0225401D01*
X0052750Y0222199D01*
X0053976Y0219240D01*
X0056240Y0216976D01*
X0059199Y0215750D01*
X0064455Y0215750D01*
X0081750Y0198376D01*
X0081750Y0134134D01*
X0077506Y0129890D01*
X0069699Y0129890D01*
X0066740Y0128664D01*
X0066365Y0128289D01*
X0063996Y0127308D01*
X0062850Y0126162D01*
X0062850Y0129466D01*
X0067174Y0133790D01*
X0072901Y0133790D01*
X0075860Y0135016D01*
X0076235Y0135391D01*
X0078604Y0136372D01*
X0080418Y0138186D01*
X0081400Y0140557D01*
X0081400Y0143123D01*
X0080418Y0145494D01*
X0078604Y0147308D01*
X0076303Y0148261D01*
X0076806Y0148053D02*
X0081750Y0148053D01*
X0081750Y0149651D02*
X0074847Y0149651D01*
X0073173Y0151250D02*
X0081750Y0151250D01*
X0081750Y0152848D02*
X0071500Y0152848D01*
X0069826Y0154447D02*
X0081750Y0154447D01*
X0081750Y0156045D02*
X0068152Y0156045D01*
X0066478Y0157644D02*
X0081750Y0157644D01*
X0081750Y0159242D02*
X0065850Y0159242D01*
X0065850Y0160841D02*
X0081750Y0160841D01*
X0081750Y0162439D02*
X0065850Y0162439D01*
X0065850Y0164038D02*
X0081750Y0164038D01*
X0081750Y0165636D02*
X0065850Y0165636D01*
X0065850Y0167235D02*
X0081750Y0167235D01*
X0081750Y0168833D02*
X0065850Y0168833D01*
X0065850Y0170432D02*
X0081750Y0170432D01*
X0081750Y0172030D02*
X0065850Y0172030D01*
X0065850Y0173629D02*
X0081750Y0173629D01*
X0081750Y0175227D02*
X0065850Y0175227D01*
X0065850Y0176826D02*
X0081750Y0176826D01*
X0081750Y0178424D02*
X0065850Y0178424D01*
X0065850Y0180023D02*
X0081750Y0180023D01*
X0081750Y0181621D02*
X0065850Y0181621D01*
X0065850Y0183220D02*
X0081750Y0183220D01*
X0081750Y0184818D02*
X0065850Y0184818D01*
X0065850Y0186417D02*
X0081750Y0186417D01*
X0081750Y0188015D02*
X0065850Y0188015D01*
X0065850Y0189614D02*
X0081750Y0189614D01*
X0081750Y0191212D02*
X0065850Y0191212D01*
X0065850Y0192811D02*
X0081750Y0192811D01*
X0081750Y0194409D02*
X0065850Y0194409D01*
X0065850Y0196008D02*
X0081750Y0196008D01*
X0081750Y0197606D02*
X0065991Y0197606D01*
X0067589Y0199205D02*
X0080925Y0199205D01*
X0079334Y0200803D02*
X0068272Y0200803D01*
X0068850Y0202402D02*
X0077742Y0202402D01*
X0076151Y0204001D02*
X0068850Y0204001D01*
X0068768Y0205599D02*
X0074560Y0205599D01*
X0072969Y0207198D02*
X0068106Y0207198D01*
X0067188Y0208796D02*
X0071377Y0208796D01*
X0069786Y0210395D02*
X0065590Y0210395D01*
X0068195Y0211993D02*
X0048100Y0211993D01*
X0048100Y0210395D02*
X0053010Y0210395D01*
X0051412Y0208796D02*
X0048100Y0208796D01*
X0048100Y0207198D02*
X0050494Y0207198D01*
X0049832Y0205599D02*
X0048100Y0205599D01*
X0048100Y0204001D02*
X0049750Y0204001D01*
X0049750Y0202402D02*
X0048100Y0202402D01*
X0048100Y0200803D02*
X0049750Y0200803D01*
X0049750Y0199205D02*
X0048100Y0199205D01*
X0048100Y0197606D02*
X0049750Y0197606D01*
X0049750Y0196008D02*
X0048100Y0196008D01*
X0048100Y0194409D02*
X0049750Y0194409D01*
X0049750Y0192811D02*
X0048100Y0192811D01*
X0048100Y0191212D02*
X0049750Y0191212D01*
X0049750Y0189614D02*
X0048100Y0189614D01*
X0048100Y0188015D02*
X0049750Y0188015D01*
X0049750Y0186417D02*
X0048100Y0186417D01*
X0048100Y0184818D02*
X0049750Y0184818D01*
X0049750Y0183220D02*
X0048100Y0183220D01*
X0048100Y0181621D02*
X0049750Y0181621D01*
X0049750Y0180023D02*
X0048100Y0180023D01*
X0048100Y0178424D02*
X0049750Y0178424D01*
X0049750Y0176826D02*
X0048100Y0176826D01*
X0048100Y0175227D02*
X0049750Y0175227D01*
X0049750Y0173629D02*
X0048100Y0173629D01*
X0048100Y0172030D02*
X0049750Y0172030D01*
X0049750Y0170432D02*
X0048100Y0170432D01*
X0048100Y0168833D02*
X0049750Y0168833D01*
X0049750Y0167235D02*
X0048100Y0167235D01*
X0048100Y0165636D02*
X0049750Y0165636D01*
X0049750Y0164038D02*
X0048100Y0164038D01*
X0048100Y0162439D02*
X0049750Y0162439D01*
X0049750Y0160841D02*
X0048100Y0160841D01*
X0048100Y0159242D02*
X0049750Y0159242D01*
X0049750Y0157644D02*
X0048100Y0157644D01*
X0048100Y0156045D02*
X0049719Y0156045D01*
X0049750Y0154447D02*
X0048100Y0154447D01*
X0048100Y0152848D02*
X0049862Y0152848D01*
X0050557Y0151250D02*
X0048100Y0151250D01*
X0048100Y0149651D02*
X0051536Y0149651D01*
X0053163Y0148053D02*
X0048100Y0148053D01*
X0048100Y0146454D02*
X0054883Y0146454D01*
X0055471Y0144856D02*
X0048100Y0144856D01*
X0048100Y0143257D02*
X0053873Y0143257D01*
X0052274Y0141659D02*
X0048100Y0141659D01*
X0048100Y0140060D02*
X0050676Y0140060D01*
X0049077Y0138462D02*
X0048100Y0138462D01*
X0062850Y0128870D02*
X0067237Y0128870D01*
X0063960Y0127272D02*
X0062850Y0127272D01*
X0063853Y0130469D02*
X0078085Y0130469D01*
X0079683Y0132068D02*
X0065452Y0132068D01*
X0067050Y0133666D02*
X0081282Y0133666D01*
X0081750Y0135265D02*
X0076109Y0135265D01*
X0079095Y0136863D02*
X0081750Y0136863D01*
X0081750Y0138462D02*
X0080532Y0138462D01*
X0081194Y0140060D02*
X0081750Y0140060D01*
X0081750Y0141659D02*
X0081400Y0141659D01*
X0081344Y0143257D02*
X0081750Y0143257D01*
X0081750Y0144856D02*
X0080682Y0144856D01*
X0081750Y0146454D02*
X0079458Y0146454D01*
X0097850Y0146454D02*
X0099373Y0146454D01*
X0099928Y0147796D02*
X0098753Y0144958D01*
X0098753Y0141886D01*
X0099928Y0139048D01*
X0102100Y0136876D01*
X0104938Y0135701D01*
X0108010Y0135701D01*
X0109084Y0136146D01*
X0123298Y0121931D01*
X0124227Y0121002D01*
X0125440Y0120500D01*
X0179397Y0120500D01*
X0179388Y0120479D01*
X0174761Y0115852D01*
X0173748Y0114839D01*
X0173200Y0113516D01*
X0173200Y0107400D01*
X0113380Y0107400D01*
X0112057Y0106852D01*
X0111044Y0105839D01*
X0108784Y0103579D01*
X0108010Y0103899D01*
X0104938Y0103899D01*
X0102100Y0102724D01*
X0099928Y0100552D01*
X0098753Y0097714D01*
X0098753Y0094642D01*
X0099928Y0091804D01*
X0102100Y0089632D01*
X0104938Y0088457D01*
X0108010Y0088457D01*
X0110848Y0089632D01*
X0113020Y0091804D01*
X0114195Y0094642D01*
X0114195Y0097714D01*
X0113875Y0098488D01*
X0115587Y0100200D01*
X0147814Y0100200D01*
X0146784Y0097714D01*
X0146784Y0094642D01*
X0147960Y0091804D01*
X0150132Y0089632D01*
X0152970Y0088457D01*
X0156041Y0088457D01*
X0158879Y0089632D01*
X0161051Y0091804D01*
X0162227Y0094642D01*
X0162227Y0097714D01*
X0161197Y0100200D01*
X0173200Y0100200D01*
X0173200Y0082084D01*
X0173748Y0080761D01*
X0174761Y0079748D01*
X0177748Y0076761D01*
X0178761Y0075748D01*
X0179016Y0075642D01*
X0178473Y0075100D01*
X0161692Y0075100D01*
X0162427Y0076874D01*
X0162427Y0079945D01*
X0161251Y0082783D01*
X0159079Y0084955D01*
X0156241Y0086131D01*
X0153170Y0086131D01*
X0150332Y0084955D01*
X0148160Y0082783D01*
X0147048Y0080100D01*
X0114005Y0080100D01*
X0113220Y0081996D01*
X0111048Y0084168D01*
X0108210Y0085343D01*
X0105138Y0085343D01*
X0102300Y0084168D01*
X0100128Y0081996D01*
X0098953Y0079158D01*
X0098953Y0076086D01*
X0100128Y0073248D01*
X0102300Y0071076D01*
X0105138Y0069901D01*
X0108210Y0069901D01*
X0111048Y0071076D01*
X0113220Y0073248D01*
X0113324Y0073500D01*
X0145433Y0073500D01*
X0149002Y0069931D01*
X0149931Y0069002D01*
X0151144Y0068500D01*
X0178473Y0068500D01*
X0180173Y0066800D01*
X0177700Y0064327D01*
X0177700Y0059273D01*
X0181137Y0055836D01*
X0180261Y0055473D01*
X0179474Y0054685D01*
X0179047Y0053656D01*
X0179047Y0047424D01*
X0179057Y0047400D01*
X0125400Y0047400D01*
X0125400Y0056329D01*
X0126039Y0056968D01*
X0126800Y0058805D01*
X0126800Y0060795D01*
X0126039Y0062632D01*
X0124632Y0064039D01*
X0122795Y0064800D01*
X0120805Y0064800D01*
X0118968Y0064039D01*
X0117561Y0062632D01*
X0116800Y0060795D01*
X0116800Y0058805D01*
X0117561Y0056968D01*
X0118200Y0056329D01*
X0118200Y0046291D01*
X0109481Y0037573D01*
X0108210Y0038099D01*
X0105138Y0038099D01*
X0102300Y0036924D01*
X0100128Y0034752D01*
X0098953Y0031914D01*
X0098953Y0028842D01*
X0100128Y0026004D01*
X0102300Y0023832D01*
X0105138Y0022657D01*
X0108210Y0022657D01*
X0111048Y0023832D01*
X0113220Y0026004D01*
X0114395Y0028842D01*
X0114395Y0031914D01*
X0114281Y0032190D01*
X0122291Y0040200D01*
X0179047Y0040200D01*
X0179047Y0039944D01*
X0179474Y0038915D01*
X0180261Y0038127D01*
X0181290Y0037701D01*
X0188310Y0037701D01*
X0189339Y0038127D01*
X0190126Y0038915D01*
X0190553Y0039944D01*
X0190553Y0040215D01*
X0191839Y0040748D01*
X0192852Y0041761D01*
X0203300Y0052209D01*
X0215748Y0039761D01*
X0216761Y0038748D01*
X0218084Y0038200D01*
X0243334Y0038200D01*
X0245507Y0037300D01*
X0248093Y0037300D01*
X0250482Y0038290D01*
X0251800Y0039608D01*
X0253118Y0038290D01*
X0255507Y0037300D01*
X0258093Y0037300D01*
X0260482Y0038290D01*
X0262310Y0040118D01*
X0263300Y0042507D01*
X0263300Y0045093D01*
X0262310Y0047482D01*
X0260482Y0049310D01*
X0258093Y0050300D01*
X0255507Y0050300D01*
X0253118Y0049310D01*
X0251800Y0047992D01*
X0250482Y0049310D01*
X0248093Y0050300D01*
X0245507Y0050300D01*
X0243118Y0049310D01*
X0241290Y0047482D01*
X0240427Y0045400D01*
X0226903Y0045400D01*
X0227008Y0045505D01*
X0227435Y0046534D01*
X0227435Y0049500D01*
X0229456Y0049500D01*
X0230669Y0050002D01*
X0246368Y0065701D01*
X0247310Y0065701D01*
X0248339Y0066127D01*
X0249126Y0066915D01*
X0249553Y0067944D01*
X0249553Y0067954D01*
X0249669Y0068002D01*
X0255270Y0073604D01*
X0256290Y0073181D01*
X0263310Y0073181D01*
X0264339Y0073607D01*
X0265126Y0074395D01*
X0265553Y0075424D01*
X0265553Y0081656D01*
X0265126Y0082685D01*
X0264339Y0083473D01*
X0263310Y0083899D01*
X0256290Y0083899D01*
X0255261Y0083473D01*
X0254474Y0082685D01*
X0254047Y0081656D01*
X0254047Y0081060D01*
X0252931Y0080598D01*
X0252002Y0079669D01*
X0249553Y0077220D01*
X0249553Y0081656D01*
X0249126Y0082685D01*
X0248339Y0083473D01*
X0247310Y0083899D01*
X0240290Y0083899D01*
X0239261Y0083473D01*
X0238474Y0082685D01*
X0238047Y0081656D01*
X0238047Y0077714D01*
X0232175Y0071842D01*
X0231764Y0072252D01*
X0230735Y0072679D01*
X0226865Y0072679D01*
X0225836Y0072252D01*
X0225048Y0071465D01*
X0224622Y0070436D01*
X0224622Y0066645D01*
X0214600Y0076667D01*
X0214600Y0085607D01*
X0214174Y0086636D01*
X0213386Y0087424D01*
X0212357Y0087850D01*
X0202941Y0087850D01*
X0204841Y0089750D01*
X0212357Y0089750D01*
X0213386Y0090176D01*
X0214174Y0090964D01*
X0214600Y0091993D01*
X0214600Y0103107D01*
X0214174Y0104136D01*
X0213386Y0104924D01*
X0212357Y0105350D01*
X0201243Y0105350D01*
X0200214Y0104924D01*
X0199426Y0104136D01*
X0199100Y0103348D01*
X0199100Y0105433D01*
X0201917Y0108250D01*
X0212357Y0108250D01*
X0213386Y0108676D01*
X0214174Y0109464D01*
X0214600Y0110493D01*
X0214600Y0116333D01*
X0223719Y0107214D01*
X0224622Y0106311D01*
X0224622Y0106164D01*
X0225048Y0105135D01*
X0225836Y0104348D01*
X0226865Y0103921D01*
X0230735Y0103921D01*
X0231764Y0104348D01*
X0232552Y0105135D01*
X0232978Y0106164D01*
X0232978Y0106955D01*
X0235002Y0104931D01*
X0235931Y0104002D01*
X0237144Y0103500D01*
X0238047Y0103500D01*
X0238047Y0103424D01*
X0238306Y0102800D01*
X0238047Y0102176D01*
X0238047Y0098100D01*
X0232703Y0098100D01*
X0232552Y0098465D01*
X0231764Y0099252D01*
X0230735Y0099679D01*
X0226865Y0099679D01*
X0225836Y0099252D01*
X0225048Y0098465D01*
X0224622Y0097436D01*
X0224622Y0093049D01*
X0223632Y0094039D01*
X0221795Y0094800D01*
X0219805Y0094800D01*
X0217968Y0094039D01*
X0216561Y0092632D01*
X0215800Y0090795D01*
X0215800Y0088805D01*
X0216561Y0086968D01*
X0217968Y0085561D01*
X0219805Y0084800D01*
X0221417Y0084800D01*
X0224622Y0081595D01*
X0224622Y0079164D01*
X0225048Y0078135D01*
X0225836Y0077348D01*
X0226865Y0076921D01*
X0230735Y0076921D01*
X0231764Y0077348D01*
X0232552Y0078135D01*
X0232978Y0079164D01*
X0232978Y0085003D01*
X0232552Y0086032D01*
X0231764Y0086819D01*
X0230735Y0087246D01*
X0228305Y0087246D01*
X0225800Y0089750D01*
X0225800Y0089817D01*
X0225836Y0089781D01*
X0226865Y0089354D01*
X0230735Y0089354D01*
X0231764Y0089781D01*
X0232552Y0090568D01*
X0232938Y0091500D01*
X0240456Y0091500D01*
X0241669Y0092002D01*
X0243368Y0093701D01*
X0247310Y0093701D01*
X0248339Y0094127D01*
X0249126Y0094915D01*
X0249553Y0095944D01*
X0249553Y0101380D01*
X0253743Y0097191D01*
X0254047Y0096886D01*
X0254047Y0095944D01*
X0254474Y0094915D01*
X0255261Y0094127D01*
X0256290Y0093701D01*
X0263310Y0093701D01*
X0264339Y0094127D01*
X0265126Y0094915D01*
X0265553Y0095944D01*
X0265553Y0102176D01*
X0265126Y0103205D01*
X0264339Y0103993D01*
X0263310Y0104419D01*
X0256290Y0104419D01*
X0255978Y0104289D01*
X0252669Y0107598D01*
X0251456Y0108100D01*
X0249553Y0108100D01*
X0249553Y0109656D01*
X0249126Y0110685D01*
X0248339Y0111473D01*
X0247310Y0111899D01*
X0240290Y0111899D01*
X0239261Y0111473D01*
X0238528Y0110739D01*
X0227435Y0121832D01*
X0227435Y0123192D01*
X0227008Y0124221D01*
X0226670Y0124559D01*
X0228932Y0124559D01*
X0229961Y0124985D01*
X0230749Y0125773D01*
X0231175Y0126802D01*
X0231175Y0131459D01*
X0230749Y0132488D01*
X0229961Y0133276D01*
X0228932Y0133702D01*
X0226565Y0133702D01*
X0221669Y0138598D01*
X0220456Y0139100D01*
X0215571Y0139100D01*
X0214632Y0140039D01*
X0212795Y0140800D01*
X0210805Y0140800D01*
X0208968Y0140039D01*
X0207561Y0138632D01*
X0206800Y0136795D01*
X0206800Y0136467D01*
X0189598Y0153669D01*
X0189475Y0153792D01*
X0189475Y0154151D01*
X0186825Y0156800D01*
X0189475Y0159449D01*
X0189475Y0164151D01*
X0186825Y0166800D01*
X0189475Y0169449D01*
X0189475Y0174151D01*
X0186825Y0176800D01*
X0189475Y0179449D01*
X0189475Y0184151D01*
X0186151Y0187475D01*
X0181449Y0187475D01*
X0178125Y0184151D01*
X0178125Y0179449D01*
X0180775Y0176800D01*
X0178125Y0174151D01*
X0178125Y0169449D01*
X0180775Y0166800D01*
X0178125Y0164151D01*
X0178125Y0159449D01*
X0180775Y0156800D01*
X0178125Y0154151D01*
X0178125Y0149449D01*
X0180775Y0146800D01*
X0178125Y0144151D01*
X0178125Y0139449D01*
X0180775Y0136800D01*
X0178125Y0134151D01*
X0178125Y0129449D01*
X0180475Y0127100D01*
X0127463Y0127100D01*
X0113750Y0140812D01*
X0114195Y0141886D01*
X0114195Y0144958D01*
X0113020Y0147796D01*
X0110848Y0149968D01*
X0108010Y0151143D01*
X0104938Y0151143D01*
X0102100Y0149968D01*
X0099928Y0147796D01*
X0100185Y0148053D02*
X0097850Y0148053D01*
X0097850Y0149651D02*
X0101784Y0149651D01*
X0097850Y0151250D02*
X0151325Y0151250D01*
X0150132Y0150755D02*
X0147960Y0148583D01*
X0146784Y0145745D01*
X0146784Y0142674D01*
X0147960Y0139836D01*
X0150132Y0137664D01*
X0152970Y0136488D01*
X0156041Y0136488D01*
X0158879Y0137664D01*
X0161051Y0139836D01*
X0162227Y0142674D01*
X0162227Y0145745D01*
X0161051Y0148583D01*
X0158879Y0150755D01*
X0156041Y0151931D01*
X0152970Y0151931D01*
X0150132Y0150755D01*
X0149028Y0149651D02*
X0111164Y0149651D01*
X0112763Y0148053D02*
X0147740Y0148053D01*
X0147078Y0146454D02*
X0113576Y0146454D01*
X0114195Y0144856D02*
X0146784Y0144856D01*
X0146784Y0143257D02*
X0114195Y0143257D01*
X0114101Y0141659D02*
X0147205Y0141659D01*
X0147867Y0140060D02*
X0114503Y0140060D01*
X0116101Y0138462D02*
X0149334Y0138462D01*
X0152065Y0136863D02*
X0117700Y0136863D01*
X0119298Y0135265D02*
X0179239Y0135265D01*
X0178125Y0133666D02*
X0120897Y0133666D01*
X0122495Y0132068D02*
X0178125Y0132068D01*
X0178125Y0130469D02*
X0124094Y0130469D01*
X0125692Y0128870D02*
X0178704Y0128870D01*
X0180303Y0127272D02*
X0127291Y0127272D01*
X0122753Y0122476D02*
X0106237Y0122476D01*
X0106619Y0120878D02*
X0124527Y0120878D01*
X0121154Y0124075D02*
X0105444Y0124075D01*
X0104285Y0125673D02*
X0119556Y0125673D01*
X0117957Y0127272D02*
X0103126Y0127272D01*
X0101967Y0128870D02*
X0116359Y0128870D01*
X0114760Y0130469D02*
X0100808Y0130469D01*
X0099649Y0132068D02*
X0113162Y0132068D01*
X0111563Y0133666D02*
X0098490Y0133666D01*
X0097850Y0135265D02*
X0109965Y0135265D01*
X0102132Y0136863D02*
X0097850Y0136863D01*
X0097850Y0138462D02*
X0100515Y0138462D01*
X0099509Y0140060D02*
X0097850Y0140060D01*
X0097850Y0141659D02*
X0098847Y0141659D01*
X0098753Y0143257D02*
X0097850Y0143257D01*
X0097850Y0144856D02*
X0098753Y0144856D01*
X0097850Y0152848D02*
X0178125Y0152848D01*
X0178125Y0151250D02*
X0157686Y0151250D01*
X0159983Y0149651D02*
X0178125Y0149651D01*
X0179522Y0148053D02*
X0161271Y0148053D01*
X0161933Y0146454D02*
X0180429Y0146454D01*
X0178830Y0144856D02*
X0162227Y0144856D01*
X0162227Y0143257D02*
X0178125Y0143257D01*
X0178125Y0141659D02*
X0161806Y0141659D01*
X0161144Y0140060D02*
X0178125Y0140060D01*
X0179113Y0138462D02*
X0159677Y0138462D01*
X0156946Y0136863D02*
X0180712Y0136863D01*
X0195214Y0148053D02*
X0269522Y0148053D01*
X0270775Y0146800D02*
X0268125Y0144151D01*
X0268125Y0139449D01*
X0270775Y0136800D01*
X0268125Y0134151D01*
X0268125Y0129449D01*
X0271449Y0126125D01*
X0276151Y0126125D01*
X0278500Y0128475D01*
X0278500Y0113167D01*
X0277232Y0111899D01*
X0273290Y0111899D01*
X0272261Y0111473D01*
X0271474Y0110685D01*
X0271047Y0109656D01*
X0271047Y0103424D01*
X0271474Y0102395D01*
X0272261Y0101607D01*
X0273290Y0101181D01*
X0280310Y0101181D01*
X0281339Y0101607D01*
X0282126Y0102395D01*
X0282553Y0103424D01*
X0282553Y0107886D01*
X0283800Y0109133D01*
X0293033Y0099900D01*
X0289273Y0099900D01*
X0285700Y0096327D01*
X0285700Y0092367D01*
X0277232Y0083899D01*
X0273290Y0083899D01*
X0272261Y0083473D01*
X0271474Y0082685D01*
X0271047Y0081656D01*
X0271047Y0075424D01*
X0271306Y0074800D01*
X0271047Y0074176D01*
X0271047Y0067944D01*
X0271474Y0066915D01*
X0272261Y0066127D01*
X0273200Y0065738D01*
X0273200Y0057084D01*
X0273748Y0055761D01*
X0283334Y0046175D01*
X0283300Y0046093D01*
X0283300Y0043507D01*
X0284290Y0041118D01*
X0286118Y0039290D01*
X0288507Y0038300D01*
X0291093Y0038300D01*
X0293482Y0039290D01*
X0294800Y0040608D01*
X0296118Y0039290D01*
X0298507Y0038300D01*
X0301093Y0038300D01*
X0303482Y0039290D01*
X0305310Y0041118D01*
X0306300Y0043507D01*
X0306300Y0046093D01*
X0305310Y0048482D01*
X0303482Y0050310D01*
X0303100Y0050469D01*
X0303100Y0098456D01*
X0302598Y0099669D01*
X0289100Y0113167D01*
X0289100Y0136833D01*
X0297458Y0128475D01*
X0297300Y0128093D01*
X0297300Y0125507D01*
X0298290Y0123118D01*
X0299608Y0121800D01*
X0298290Y0120482D01*
X0297300Y0118093D01*
X0297300Y0115507D01*
X0298290Y0113118D01*
X0300118Y0111290D01*
X0302507Y0110300D01*
X0305093Y0110300D01*
X0307482Y0111290D01*
X0309310Y0113118D01*
X0310300Y0115507D01*
X0310300Y0118093D01*
X0309310Y0120482D01*
X0307992Y0121800D01*
X0309310Y0123118D01*
X0310300Y0125507D01*
X0310300Y0128093D01*
X0309310Y0130482D01*
X0307482Y0132310D01*
X0305093Y0133300D01*
X0302507Y0133300D01*
X0302125Y0133142D01*
X0293100Y0142167D01*
X0293100Y0154148D01*
X0293176Y0153964D01*
X0293964Y0153176D01*
X0294993Y0152750D01*
X0302607Y0152750D01*
X0303636Y0153176D01*
X0304424Y0153964D01*
X0304850Y0154993D01*
X0304850Y0162607D01*
X0304424Y0163636D01*
X0303636Y0164424D01*
X0302607Y0164850D01*
X0302400Y0164850D01*
X0302400Y0173750D01*
X0302607Y0173750D01*
X0303636Y0174176D01*
X0304424Y0174964D01*
X0304850Y0175993D01*
X0304850Y0183607D01*
X0304424Y0184636D01*
X0303636Y0185424D01*
X0302607Y0185850D01*
X0294993Y0185850D01*
X0293964Y0185424D01*
X0293176Y0184636D01*
X0292750Y0183607D01*
X0292750Y0175993D01*
X0293176Y0174964D01*
X0293964Y0174176D01*
X0294993Y0173750D01*
X0295200Y0173750D01*
X0295200Y0164850D01*
X0294993Y0164850D01*
X0293964Y0164424D01*
X0293176Y0163636D01*
X0293100Y0163452D01*
X0293100Y0168456D01*
X0292598Y0169669D01*
X0279475Y0182792D01*
X0279475Y0184151D01*
X0276825Y0186800D01*
X0279475Y0189449D01*
X0279475Y0194151D01*
X0276825Y0196800D01*
X0279475Y0199449D01*
X0279475Y0204151D01*
X0276151Y0207475D01*
X0271449Y0207475D01*
X0268125Y0204151D01*
X0268125Y0199449D01*
X0270775Y0196800D01*
X0268125Y0194151D01*
X0268125Y0189449D01*
X0270775Y0186800D01*
X0268125Y0184151D01*
X0268125Y0179449D01*
X0270775Y0176800D01*
X0268125Y0174151D01*
X0268125Y0169449D01*
X0270775Y0166800D01*
X0268125Y0164151D01*
X0268125Y0159449D01*
X0270775Y0156800D01*
X0268125Y0154151D01*
X0268125Y0149449D01*
X0270775Y0146800D01*
X0270429Y0146454D02*
X0196813Y0146454D01*
X0198411Y0144856D02*
X0268830Y0144856D01*
X0268125Y0143257D02*
X0200010Y0143257D01*
X0201608Y0141659D02*
X0268125Y0141659D01*
X0268125Y0140060D02*
X0214581Y0140060D01*
X0209019Y0140060D02*
X0203207Y0140060D01*
X0204805Y0138462D02*
X0207491Y0138462D01*
X0206828Y0136863D02*
X0206404Y0136863D01*
X0221805Y0138462D02*
X0269113Y0138462D01*
X0270712Y0136863D02*
X0223404Y0136863D01*
X0225002Y0135265D02*
X0269239Y0135265D01*
X0268125Y0133666D02*
X0229019Y0133666D01*
X0230923Y0132068D02*
X0268125Y0132068D01*
X0268125Y0130469D02*
X0231175Y0130469D01*
X0231175Y0128870D02*
X0268704Y0128870D01*
X0270303Y0127272D02*
X0231175Y0127272D01*
X0230649Y0125673D02*
X0278500Y0125673D01*
X0278500Y0124075D02*
X0227069Y0124075D01*
X0227435Y0122476D02*
X0278500Y0122476D01*
X0278500Y0120878D02*
X0228389Y0120878D01*
X0229987Y0119279D02*
X0278500Y0119279D01*
X0278500Y0117681D02*
X0231586Y0117681D01*
X0233184Y0116082D02*
X0278500Y0116082D01*
X0278500Y0114484D02*
X0234783Y0114484D01*
X0236382Y0112885D02*
X0278218Y0112885D01*
X0272075Y0111287D02*
X0248525Y0111287D01*
X0249539Y0109688D02*
X0271061Y0109688D01*
X0271047Y0108090D02*
X0251481Y0108090D01*
X0253776Y0106491D02*
X0271047Y0106491D01*
X0271047Y0104893D02*
X0255374Y0104893D01*
X0250836Y0100097D02*
X0249553Y0100097D01*
X0249553Y0098499D02*
X0252434Y0098499D01*
X0254033Y0096900D02*
X0249553Y0096900D01*
X0249287Y0095302D02*
X0254313Y0095302D01*
X0256284Y0093703D02*
X0247316Y0093703D01*
X0241772Y0092105D02*
X0285438Y0092105D01*
X0285700Y0093703D02*
X0263316Y0093703D01*
X0265287Y0095302D02*
X0285700Y0095302D01*
X0286274Y0096900D02*
X0265553Y0096900D01*
X0265553Y0098499D02*
X0287872Y0098499D01*
X0292836Y0100097D02*
X0265553Y0100097D01*
X0265553Y0101696D02*
X0272173Y0101696D01*
X0271101Y0103294D02*
X0265037Y0103294D01*
X0281427Y0101696D02*
X0291237Y0101696D01*
X0289639Y0103294D02*
X0282499Y0103294D01*
X0282553Y0104893D02*
X0288040Y0104893D01*
X0286442Y0106491D02*
X0282553Y0106491D01*
X0282757Y0108090D02*
X0284843Y0108090D01*
X0290980Y0111287D02*
X0300125Y0111287D01*
X0298522Y0112885D02*
X0289382Y0112885D01*
X0289100Y0114484D02*
X0297724Y0114484D01*
X0297300Y0116082D02*
X0289100Y0116082D01*
X0289100Y0117681D02*
X0297300Y0117681D01*
X0297791Y0119279D02*
X0289100Y0119279D01*
X0289100Y0120878D02*
X0298686Y0120878D01*
X0298931Y0122476D02*
X0289100Y0122476D01*
X0289100Y0124075D02*
X0297893Y0124075D01*
X0297300Y0125673D02*
X0289100Y0125673D01*
X0289100Y0127272D02*
X0297300Y0127272D01*
X0297063Y0128870D02*
X0289100Y0128870D01*
X0289100Y0130469D02*
X0295464Y0130469D01*
X0293866Y0132068D02*
X0289100Y0132068D01*
X0289100Y0133666D02*
X0292267Y0133666D01*
X0290669Y0135265D02*
X0289100Y0135265D01*
X0295207Y0140060D02*
X0318450Y0140060D01*
X0318450Y0138462D02*
X0296805Y0138462D01*
X0298404Y0136863D02*
X0318450Y0136863D01*
X0318450Y0135265D02*
X0300002Y0135265D01*
X0301601Y0133666D02*
X0318450Y0133666D01*
X0318450Y0132068D02*
X0307725Y0132068D01*
X0309316Y0130469D02*
X0318450Y0130469D01*
X0318450Y0128870D02*
X0309978Y0128870D01*
X0310300Y0127272D02*
X0318450Y0127272D01*
X0318450Y0125673D02*
X0310300Y0125673D01*
X0309707Y0124075D02*
X0318450Y0124075D01*
X0318450Y0122476D02*
X0308669Y0122476D01*
X0308914Y0120878D02*
X0318450Y0120878D01*
X0318450Y0119279D02*
X0309809Y0119279D01*
X0310300Y0117681D02*
X0318450Y0117681D01*
X0318450Y0116082D02*
X0310300Y0116082D01*
X0309876Y0114484D02*
X0318450Y0114484D01*
X0318450Y0112885D02*
X0309078Y0112885D01*
X0307475Y0111287D02*
X0318450Y0111287D01*
X0318450Y0109688D02*
X0292579Y0109688D01*
X0294177Y0108090D02*
X0318450Y0108090D01*
X0318450Y0106491D02*
X0295776Y0106491D01*
X0297374Y0104893D02*
X0318450Y0104893D01*
X0318450Y0103294D02*
X0298973Y0103294D01*
X0300571Y0101696D02*
X0318450Y0101696D01*
X0318450Y0100097D02*
X0302170Y0100097D01*
X0303082Y0098499D02*
X0318450Y0098499D01*
X0318450Y0096900D02*
X0303100Y0096900D01*
X0303100Y0095302D02*
X0318450Y0095302D01*
X0318450Y0093703D02*
X0303100Y0093703D01*
X0303100Y0092105D02*
X0318450Y0092105D01*
X0318450Y0090506D02*
X0303100Y0090506D01*
X0303100Y0088908D02*
X0318450Y0088908D01*
X0318450Y0087309D02*
X0303100Y0087309D01*
X0303100Y0085711D02*
X0318450Y0085711D01*
X0318450Y0084112D02*
X0303100Y0084112D01*
X0303100Y0082514D02*
X0318450Y0082514D01*
X0318450Y0080915D02*
X0303100Y0080915D01*
X0303100Y0079317D02*
X0318450Y0079317D01*
X0318450Y0077718D02*
X0303100Y0077718D01*
X0303100Y0076120D02*
X0318450Y0076120D01*
X0318450Y0074521D02*
X0303100Y0074521D01*
X0303100Y0072923D02*
X0318450Y0072923D01*
X0318450Y0071324D02*
X0303100Y0071324D01*
X0303100Y0069726D02*
X0318450Y0069726D01*
X0318450Y0068127D02*
X0303100Y0068127D01*
X0303100Y0066529D02*
X0318450Y0066529D01*
X0318450Y0064930D02*
X0303100Y0064930D01*
X0303100Y0063332D02*
X0318450Y0063332D01*
X0318450Y0061733D02*
X0303100Y0061733D01*
X0303100Y0060134D02*
X0318450Y0060134D01*
X0318450Y0058536D02*
X0303100Y0058536D01*
X0303100Y0056937D02*
X0318450Y0056937D01*
X0318450Y0055339D02*
X0303100Y0055339D01*
X0303100Y0053740D02*
X0318450Y0053740D01*
X0318450Y0052142D02*
X0303100Y0052142D01*
X0303100Y0050543D02*
X0318450Y0050543D01*
X0318450Y0048945D02*
X0304847Y0048945D01*
X0305781Y0047346D02*
X0318450Y0047346D01*
X0318450Y0045748D02*
X0306300Y0045748D01*
X0306300Y0044149D02*
X0318450Y0044149D01*
X0318450Y0042551D02*
X0305904Y0042551D01*
X0305145Y0040952D02*
X0318450Y0040952D01*
X0318450Y0039354D02*
X0303546Y0039354D01*
X0296054Y0039354D02*
X0293546Y0039354D01*
X0289800Y0044800D02*
X0276800Y0057800D01*
X0276800Y0071060D01*
X0282553Y0071324D02*
X0296500Y0071324D01*
X0296500Y0069726D02*
X0282553Y0069726D01*
X0282553Y0068127D02*
X0296500Y0068127D01*
X0296500Y0066529D02*
X0281740Y0066529D01*
X0282126Y0066915D02*
X0282553Y0067944D01*
X0282553Y0074176D01*
X0282294Y0074800D01*
X0282553Y0075424D01*
X0282553Y0079886D01*
X0290367Y0087700D01*
X0294327Y0087700D01*
X0296500Y0089873D01*
X0296500Y0050469D01*
X0296118Y0050310D01*
X0294800Y0048992D01*
X0293482Y0050310D01*
X0291093Y0051300D01*
X0288507Y0051300D01*
X0288425Y0051266D01*
X0280400Y0059291D01*
X0280400Y0065738D01*
X0281339Y0066127D01*
X0282126Y0066915D01*
X0280400Y0064930D02*
X0296500Y0064930D01*
X0296500Y0063332D02*
X0280400Y0063332D01*
X0280400Y0061733D02*
X0296500Y0061733D01*
X0296500Y0060134D02*
X0280400Y0060134D01*
X0281155Y0058536D02*
X0296500Y0058536D01*
X0296500Y0056937D02*
X0282754Y0056937D01*
X0284352Y0055339D02*
X0296500Y0055339D01*
X0296500Y0053740D02*
X0285951Y0053740D01*
X0287549Y0052142D02*
X0296500Y0052142D01*
X0296500Y0050543D02*
X0292919Y0050543D01*
X0283300Y0045748D02*
X0263029Y0045748D01*
X0263300Y0044149D02*
X0283300Y0044149D01*
X0283696Y0042551D02*
X0263300Y0042551D01*
X0262656Y0040952D02*
X0284455Y0040952D01*
X0286054Y0039354D02*
X0261546Y0039354D01*
X0259192Y0037755D02*
X0318450Y0037755D01*
X0318450Y0036157D02*
X0215355Y0036157D01*
X0215783Y0034558D02*
X0318450Y0034558D01*
X0318450Y0032960D02*
X0215943Y0032960D01*
X0215943Y0031361D02*
X0318450Y0031361D01*
X0318450Y0029763D02*
X0215709Y0029763D01*
X0215280Y0028164D02*
X0318450Y0028164D01*
X0318450Y0026566D02*
X0214588Y0026566D01*
X0213665Y0024967D02*
X0318450Y0024967D01*
X0318450Y0023369D02*
X0212248Y0023369D01*
X0194352Y0023369D02*
X0157960Y0023369D01*
X0159079Y0023832D02*
X0161251Y0026004D01*
X0162427Y0028842D01*
X0162427Y0031914D01*
X0161251Y0034752D01*
X0159079Y0036924D01*
X0156241Y0038099D01*
X0153170Y0038099D01*
X0150332Y0036924D01*
X0148160Y0034752D01*
X0146984Y0031914D01*
X0146984Y0028842D01*
X0148160Y0026004D01*
X0150332Y0023832D01*
X0153170Y0022657D01*
X0156241Y0022657D01*
X0159079Y0023832D01*
X0160214Y0024967D02*
X0192935Y0024967D01*
X0192012Y0026566D02*
X0161484Y0026566D01*
X0162146Y0028164D02*
X0191320Y0028164D01*
X0190891Y0029763D02*
X0162427Y0029763D01*
X0162427Y0031361D02*
X0190657Y0031361D01*
X0190657Y0032960D02*
X0161993Y0032960D01*
X0161331Y0034558D02*
X0190817Y0034558D01*
X0191245Y0036157D02*
X0159846Y0036157D01*
X0157072Y0037755D02*
X0181159Y0037755D01*
X0179292Y0039354D02*
X0121445Y0039354D01*
X0119846Y0037755D02*
X0152340Y0037755D01*
X0149565Y0036157D02*
X0118248Y0036157D01*
X0116649Y0034558D02*
X0148080Y0034558D01*
X0147418Y0032960D02*
X0115051Y0032960D01*
X0114395Y0031361D02*
X0146984Y0031361D01*
X0146984Y0029763D02*
X0114395Y0029763D01*
X0114114Y0028164D02*
X0147265Y0028164D01*
X0147927Y0026566D02*
X0113452Y0026566D01*
X0112183Y0024967D02*
X0149197Y0024967D01*
X0151451Y0023369D02*
X0109929Y0023369D01*
X0103419Y0023369D02*
X0048100Y0023369D01*
X0048100Y0024967D02*
X0101165Y0024967D01*
X0099896Y0026566D02*
X0048100Y0026566D01*
X0048100Y0028164D02*
X0099234Y0028164D01*
X0098953Y0029763D02*
X0048100Y0029763D01*
X0048100Y0031361D02*
X0098953Y0031361D01*
X0099386Y0032960D02*
X0048100Y0032960D01*
X0048100Y0034558D02*
X0061247Y0034558D01*
X0059059Y0036157D02*
X0048100Y0036157D01*
X0048100Y0037755D02*
X0057460Y0037755D01*
X0055862Y0039354D02*
X0048100Y0039354D01*
X0048100Y0040952D02*
X0054263Y0040952D01*
X0052665Y0042551D02*
X0048100Y0042551D01*
X0048100Y0044149D02*
X0051066Y0044149D01*
X0049468Y0045748D02*
X0048100Y0045748D01*
X0048100Y0047346D02*
X0048517Y0047346D01*
X0064244Y0053740D02*
X0087675Y0053740D01*
X0089274Y0052142D02*
X0065842Y0052142D01*
X0067441Y0050543D02*
X0090872Y0050543D01*
X0092471Y0048945D02*
X0075086Y0048945D01*
X0078414Y0047346D02*
X0094069Y0047346D01*
X0103531Y0047346D02*
X0118200Y0047346D01*
X0118200Y0048945D02*
X0105129Y0048945D01*
X0106081Y0050543D02*
X0118200Y0050543D01*
X0118200Y0052142D02*
X0106744Y0052142D01*
X0106850Y0053740D02*
X0118200Y0053740D01*
X0118200Y0055339D02*
X0106850Y0055339D01*
X0106297Y0056937D02*
X0117591Y0056937D01*
X0116912Y0058536D02*
X0105634Y0058536D01*
X0104050Y0060134D02*
X0116800Y0060134D01*
X0117189Y0061733D02*
X0102451Y0061733D01*
X0100853Y0063332D02*
X0118260Y0063332D01*
X0121800Y0059800D02*
X0121800Y0044800D01*
X0121300Y0044300D01*
X0107378Y0030378D01*
X0106674Y0030378D01*
X0101533Y0036157D02*
X0078181Y0036157D01*
X0080027Y0037755D02*
X0104308Y0037755D01*
X0100048Y0034558D02*
X0074853Y0034558D01*
X0080918Y0039354D02*
X0111263Y0039354D01*
X0112861Y0040952D02*
X0081400Y0040952D01*
X0081400Y0042551D02*
X0114460Y0042551D01*
X0116058Y0044149D02*
X0080958Y0044149D01*
X0080124Y0045748D02*
X0117657Y0045748D01*
X0121800Y0043800D02*
X0184800Y0043800D01*
X0189800Y0043800D01*
X0205800Y0059800D01*
X0205800Y0054800D01*
X0218800Y0041800D01*
X0244800Y0041800D01*
X0246800Y0043800D01*
X0251546Y0039354D02*
X0252054Y0039354D01*
X0254408Y0037755D02*
X0249192Y0037755D01*
X0244408Y0037755D02*
X0214749Y0037755D01*
X0213826Y0039354D02*
X0216155Y0039354D01*
X0214556Y0040952D02*
X0212527Y0040952D01*
X0212958Y0042551D02*
X0210830Y0042551D01*
X0211359Y0044149D02*
X0207924Y0044149D01*
X0209761Y0045748D02*
X0196839Y0045748D01*
X0198438Y0047346D02*
X0208162Y0047346D01*
X0206564Y0048945D02*
X0200036Y0048945D01*
X0201635Y0050543D02*
X0204965Y0050543D01*
X0203367Y0052142D02*
X0203233Y0052142D01*
X0198676Y0044149D02*
X0195241Y0044149D01*
X0195770Y0042551D02*
X0193642Y0042551D01*
X0192852Y0041761D02*
X0192852Y0041761D01*
X0192044Y0040952D02*
X0194073Y0040952D01*
X0192774Y0039354D02*
X0190308Y0039354D01*
X0191851Y0037755D02*
X0188441Y0037755D01*
X0179047Y0048945D02*
X0125400Y0048945D01*
X0125400Y0050543D02*
X0179047Y0050543D01*
X0179047Y0052142D02*
X0125400Y0052142D01*
X0125400Y0053740D02*
X0179082Y0053740D01*
X0180127Y0055339D02*
X0125400Y0055339D01*
X0126009Y0056937D02*
X0180036Y0056937D01*
X0178437Y0058536D02*
X0126688Y0058536D01*
X0126800Y0060134D02*
X0177700Y0060134D01*
X0177700Y0061733D02*
X0126411Y0061733D01*
X0125340Y0063332D02*
X0177700Y0063332D01*
X0178303Y0064930D02*
X0099254Y0064930D01*
X0097944Y0066529D02*
X0179902Y0066529D01*
X0178846Y0068127D02*
X0097942Y0068127D01*
X0097939Y0069726D02*
X0149208Y0069726D01*
X0149002Y0069931D02*
X0149002Y0069931D01*
X0147609Y0071324D02*
X0111296Y0071324D01*
X0112894Y0072923D02*
X0146011Y0072923D01*
X0147386Y0080915D02*
X0113667Y0080915D01*
X0112702Y0082514D02*
X0148048Y0082514D01*
X0149489Y0084112D02*
X0111103Y0084112D01*
X0109099Y0088908D02*
X0151881Y0088908D01*
X0149258Y0090506D02*
X0111722Y0090506D01*
X0113144Y0092105D02*
X0147835Y0092105D01*
X0147173Y0093703D02*
X0113806Y0093703D01*
X0114195Y0095302D02*
X0146784Y0095302D01*
X0146784Y0096900D02*
X0114195Y0096900D01*
X0113886Y0098499D02*
X0147109Y0098499D01*
X0147772Y0100097D02*
X0115484Y0100097D01*
X0114800Y0103800D02*
X0114096Y0103800D01*
X0106474Y0096178D01*
X0103478Y0103294D02*
X0097885Y0103294D01*
X0097887Y0101696D02*
X0101072Y0101696D01*
X0099740Y0100097D02*
X0097890Y0100097D01*
X0097892Y0098499D02*
X0099078Y0098499D01*
X0098753Y0096900D02*
X0097895Y0096900D01*
X0097898Y0095302D02*
X0098753Y0095302D01*
X0099142Y0093703D02*
X0097900Y0093703D01*
X0097903Y0092105D02*
X0099804Y0092105D01*
X0101226Y0090506D02*
X0097905Y0090506D01*
X0097908Y0088908D02*
X0103849Y0088908D01*
X0097911Y0087309D02*
X0173200Y0087309D01*
X0173200Y0085711D02*
X0157255Y0085711D01*
X0159922Y0084112D02*
X0173200Y0084112D01*
X0173200Y0082514D02*
X0161363Y0082514D01*
X0162025Y0080915D02*
X0173684Y0080915D01*
X0174761Y0079748D02*
X0174761Y0079748D01*
X0175192Y0079317D02*
X0162427Y0079317D01*
X0162427Y0077718D02*
X0176791Y0077718D01*
X0178389Y0076120D02*
X0162114Y0076120D01*
X0152156Y0085711D02*
X0097913Y0085711D01*
X0097916Y0084112D02*
X0102245Y0084112D01*
X0100646Y0082514D02*
X0097918Y0082514D01*
X0097921Y0080915D02*
X0099681Y0080915D01*
X0099019Y0079317D02*
X0097923Y0079317D01*
X0097926Y0077718D02*
X0098953Y0077718D01*
X0098953Y0076120D02*
X0097929Y0076120D01*
X0097931Y0074521D02*
X0099601Y0074521D01*
X0100454Y0072923D02*
X0097934Y0072923D01*
X0097936Y0071324D02*
X0102052Y0071324D01*
X0082332Y0060134D02*
X0081242Y0060134D01*
X0081400Y0061733D02*
X0081850Y0061733D01*
X0081849Y0063332D02*
X0081297Y0063332D01*
X0081847Y0064930D02*
X0080635Y0064930D01*
X0081844Y0066529D02*
X0079343Y0066529D01*
X0081842Y0068127D02*
X0076530Y0068127D01*
X0081839Y0069726D02*
X0063850Y0069726D01*
X0063850Y0068127D02*
X0066070Y0068127D01*
X0064708Y0071324D02*
X0081836Y0071324D01*
X0081834Y0072923D02*
X0066307Y0072923D01*
X0073456Y0074521D02*
X0081831Y0074521D01*
X0081829Y0076120D02*
X0078091Y0076120D01*
X0079990Y0077718D02*
X0081826Y0077718D01*
X0081823Y0079317D02*
X0080903Y0079317D01*
X0081400Y0080915D02*
X0081821Y0080915D01*
X0081818Y0082514D02*
X0081400Y0082514D01*
X0081816Y0084112D02*
X0080974Y0084112D01*
X0080161Y0085711D02*
X0081813Y0085711D01*
X0081811Y0087309D02*
X0078504Y0087309D01*
X0081808Y0088908D02*
X0073870Y0088908D01*
X0066478Y0090506D02*
X0081805Y0090506D01*
X0081803Y0092105D02*
X0064880Y0092105D01*
X0063281Y0093703D02*
X0081800Y0093703D01*
X0081798Y0095302D02*
X0062850Y0095302D01*
X0062850Y0096900D02*
X0063428Y0096900D01*
X0063220Y0106491D02*
X0062850Y0106491D01*
X0062850Y0108090D02*
X0065980Y0108090D01*
X0062850Y0109688D02*
X0081774Y0109688D01*
X0081777Y0108090D02*
X0076620Y0108090D01*
X0079380Y0106491D02*
X0081780Y0106491D01*
X0081782Y0104893D02*
X0080650Y0104893D01*
X0081312Y0103294D02*
X0081785Y0103294D01*
X0081787Y0101696D02*
X0081400Y0101696D01*
X0081226Y0100097D02*
X0081790Y0100097D01*
X0081792Y0098499D02*
X0080564Y0098499D01*
X0081795Y0096900D02*
X0079172Y0096900D01*
X0081772Y0111287D02*
X0062850Y0111287D01*
X0062850Y0112885D02*
X0081769Y0112885D01*
X0068024Y0114484D02*
X0062850Y0114484D01*
X0062850Y0116082D02*
X0064695Y0116082D01*
X0097872Y0111287D02*
X0173200Y0111287D01*
X0173200Y0112885D02*
X0102777Y0112885D01*
X0104782Y0114484D02*
X0173601Y0114484D01*
X0174991Y0116082D02*
X0105764Y0116082D01*
X0106414Y0117681D02*
X0176590Y0117681D01*
X0178188Y0119279D02*
X0106669Y0119279D01*
X0097874Y0109688D02*
X0173200Y0109688D01*
X0173200Y0108090D02*
X0097877Y0108090D01*
X0097880Y0106491D02*
X0111696Y0106491D01*
X0110098Y0104893D02*
X0097882Y0104893D01*
X0114800Y0103800D02*
X0176800Y0103800D01*
X0176800Y0112800D01*
X0181800Y0117800D01*
X0184800Y0117800D01*
X0184800Y0116540D01*
X0200158Y0106491D02*
X0224442Y0106491D01*
X0225291Y0104893D02*
X0213417Y0104893D01*
X0214522Y0103294D02*
X0238101Y0103294D01*
X0238047Y0101696D02*
X0214600Y0101696D01*
X0214600Y0100097D02*
X0238047Y0100097D01*
X0238047Y0098499D02*
X0232518Y0098499D01*
X0225082Y0098499D02*
X0214600Y0098499D01*
X0214600Y0096900D02*
X0224622Y0096900D01*
X0224622Y0095302D02*
X0214600Y0095302D01*
X0214600Y0093703D02*
X0217632Y0093703D01*
X0216343Y0092105D02*
X0214600Y0092105D01*
X0213716Y0090506D02*
X0215800Y0090506D01*
X0215800Y0088908D02*
X0203999Y0088908D01*
X0206800Y0096800D02*
X0188800Y0078800D01*
X0180800Y0078800D01*
X0176800Y0082800D01*
X0176800Y0103800D01*
X0173200Y0100097D02*
X0161239Y0100097D01*
X0161902Y0098499D02*
X0173200Y0098499D01*
X0173200Y0096900D02*
X0162227Y0096900D01*
X0162227Y0095302D02*
X0173200Y0095302D01*
X0173200Y0093703D02*
X0161838Y0093703D01*
X0161176Y0092105D02*
X0173200Y0092105D01*
X0173200Y0090506D02*
X0159753Y0090506D01*
X0157130Y0088908D02*
X0173200Y0088908D01*
X0199100Y0104893D02*
X0200183Y0104893D01*
X0201757Y0108090D02*
X0222843Y0108090D01*
X0221245Y0109688D02*
X0214267Y0109688D01*
X0214600Y0111287D02*
X0219646Y0111287D01*
X0218048Y0112885D02*
X0214600Y0112885D01*
X0214600Y0114484D02*
X0216449Y0114484D01*
X0214851Y0116082D02*
X0214600Y0116082D01*
X0232978Y0106491D02*
X0233442Y0106491D01*
X0232309Y0104893D02*
X0235040Y0104893D01*
X0237980Y0111287D02*
X0239075Y0111287D01*
X0224622Y0093703D02*
X0223968Y0093703D01*
X0226643Y0088908D02*
X0282241Y0088908D01*
X0283839Y0090506D02*
X0232490Y0090506D01*
X0228241Y0087309D02*
X0280642Y0087309D01*
X0279044Y0085711D02*
X0232685Y0085711D01*
X0232978Y0084112D02*
X0277445Y0084112D01*
X0271402Y0082514D02*
X0265198Y0082514D01*
X0265553Y0080915D02*
X0271047Y0080915D01*
X0271047Y0079317D02*
X0265553Y0079317D01*
X0265553Y0077718D02*
X0271047Y0077718D01*
X0271047Y0076120D02*
X0265553Y0076120D01*
X0265179Y0074521D02*
X0271190Y0074521D01*
X0271047Y0072923D02*
X0254589Y0072923D01*
X0252991Y0071324D02*
X0271047Y0071324D01*
X0271047Y0069726D02*
X0251392Y0069726D01*
X0249794Y0068127D02*
X0271047Y0068127D01*
X0271860Y0066529D02*
X0248740Y0066529D01*
X0245597Y0064930D02*
X0273200Y0064930D01*
X0273200Y0063332D02*
X0243998Y0063332D01*
X0242400Y0061733D02*
X0273200Y0061733D01*
X0273200Y0060134D02*
X0240801Y0060134D01*
X0239203Y0058536D02*
X0273200Y0058536D01*
X0273261Y0056937D02*
X0237604Y0056937D01*
X0236006Y0055339D02*
X0274170Y0055339D01*
X0275768Y0053740D02*
X0234407Y0053740D01*
X0232809Y0052142D02*
X0277367Y0052142D01*
X0278965Y0050543D02*
X0231210Y0050543D01*
X0227435Y0048945D02*
X0242753Y0048945D01*
X0241233Y0047346D02*
X0227435Y0047346D01*
X0227109Y0045748D02*
X0240571Y0045748D01*
X0250847Y0048945D02*
X0252753Y0048945D01*
X0260847Y0048945D02*
X0280564Y0048945D01*
X0282162Y0047346D02*
X0262367Y0047346D01*
X0282553Y0072923D02*
X0296500Y0072923D01*
X0296500Y0074521D02*
X0282410Y0074521D01*
X0282553Y0076120D02*
X0296500Y0076120D01*
X0296500Y0077718D02*
X0282553Y0077718D01*
X0282553Y0079317D02*
X0296500Y0079317D01*
X0296500Y0080915D02*
X0283582Y0080915D01*
X0285181Y0082514D02*
X0296500Y0082514D01*
X0296500Y0084112D02*
X0286779Y0084112D01*
X0288378Y0085711D02*
X0296500Y0085711D01*
X0296500Y0087309D02*
X0289976Y0087309D01*
X0295534Y0088908D02*
X0296500Y0088908D01*
X0254402Y0082514D02*
X0249198Y0082514D01*
X0249553Y0080915D02*
X0253697Y0080915D01*
X0251650Y0079317D02*
X0249553Y0079317D01*
X0249553Y0077718D02*
X0250051Y0077718D01*
X0238047Y0077718D02*
X0232135Y0077718D01*
X0232978Y0079317D02*
X0238047Y0079317D01*
X0238047Y0080915D02*
X0232978Y0080915D01*
X0232978Y0082514D02*
X0238402Y0082514D01*
X0236453Y0076120D02*
X0215147Y0076120D01*
X0214600Y0077718D02*
X0225465Y0077718D01*
X0224622Y0079317D02*
X0214600Y0079317D01*
X0214600Y0080915D02*
X0224622Y0080915D01*
X0223703Y0082514D02*
X0214600Y0082514D01*
X0214600Y0084112D02*
X0222104Y0084112D01*
X0217818Y0085711D02*
X0214557Y0085711D01*
X0213501Y0087309D02*
X0216420Y0087309D01*
X0216746Y0074521D02*
X0234854Y0074521D01*
X0233256Y0072923D02*
X0218344Y0072923D01*
X0219943Y0071324D02*
X0224990Y0071324D01*
X0224622Y0069726D02*
X0221541Y0069726D01*
X0223140Y0068127D02*
X0224622Y0068127D01*
X0277297Y0127272D02*
X0278500Y0127272D01*
X0293608Y0141659D02*
X0318450Y0141659D01*
X0318450Y0143257D02*
X0293100Y0143257D01*
X0293100Y0144856D02*
X0318450Y0144856D01*
X0318450Y0146454D02*
X0293100Y0146454D01*
X0293100Y0148053D02*
X0318450Y0148053D01*
X0318450Y0149651D02*
X0293100Y0149651D01*
X0293100Y0151250D02*
X0318450Y0151250D01*
X0318450Y0152848D02*
X0302844Y0152848D01*
X0304624Y0154447D02*
X0318450Y0154447D01*
X0318450Y0156045D02*
X0304850Y0156045D01*
X0304850Y0157644D02*
X0318450Y0157644D01*
X0318450Y0159242D02*
X0304850Y0159242D01*
X0304850Y0160841D02*
X0318450Y0160841D01*
X0318450Y0162439D02*
X0304850Y0162439D01*
X0304022Y0164038D02*
X0318450Y0164038D01*
X0318450Y0165636D02*
X0302400Y0165636D01*
X0302400Y0167235D02*
X0318450Y0167235D01*
X0318450Y0168833D02*
X0302400Y0168833D01*
X0302400Y0170432D02*
X0318450Y0170432D01*
X0318450Y0172030D02*
X0302400Y0172030D01*
X0302400Y0173629D02*
X0318450Y0173629D01*
X0318450Y0175227D02*
X0304533Y0175227D01*
X0304850Y0176826D02*
X0318450Y0176826D01*
X0318450Y0178424D02*
X0304850Y0178424D01*
X0304850Y0180023D02*
X0318450Y0180023D01*
X0318450Y0181621D02*
X0304850Y0181621D01*
X0304850Y0183220D02*
X0318450Y0183220D01*
X0318450Y0184818D02*
X0304241Y0184818D01*
X0298800Y0179800D02*
X0298800Y0158800D01*
X0294756Y0152848D02*
X0293100Y0152848D01*
X0293100Y0164038D02*
X0293578Y0164038D01*
X0293100Y0165636D02*
X0295200Y0165636D01*
X0295200Y0167235D02*
X0293100Y0167235D01*
X0292944Y0168833D02*
X0295200Y0168833D01*
X0295200Y0170432D02*
X0291835Y0170432D01*
X0290237Y0172030D02*
X0295200Y0172030D01*
X0295200Y0173629D02*
X0288638Y0173629D01*
X0287040Y0175227D02*
X0293067Y0175227D01*
X0292750Y0176826D02*
X0285441Y0176826D01*
X0283843Y0178424D02*
X0292750Y0178424D01*
X0292750Y0180023D02*
X0282244Y0180023D01*
X0280646Y0181621D02*
X0292750Y0181621D01*
X0292750Y0183220D02*
X0279475Y0183220D01*
X0278807Y0184818D02*
X0293359Y0184818D01*
X0279475Y0189614D02*
X0318450Y0189614D01*
X0318450Y0191212D02*
X0279475Y0191212D01*
X0279475Y0192811D02*
X0318450Y0192811D01*
X0318450Y0194409D02*
X0279216Y0194409D01*
X0277617Y0196008D02*
X0318450Y0196008D01*
X0318450Y0197606D02*
X0277632Y0197606D01*
X0279230Y0199205D02*
X0318450Y0199205D01*
X0318450Y0200803D02*
X0279475Y0200803D01*
X0279475Y0202402D02*
X0318450Y0202402D01*
X0318450Y0204001D02*
X0306442Y0204001D01*
X0306070Y0203629D02*
X0307786Y0205345D01*
X0308715Y0207587D01*
X0308715Y0210013D01*
X0307786Y0212255D01*
X0306070Y0213971D01*
X0303828Y0214900D01*
X0301402Y0214900D01*
X0299160Y0213971D01*
X0297694Y0212505D01*
X0296228Y0213971D01*
X0293986Y0214900D01*
X0291559Y0214900D01*
X0289317Y0213971D01*
X0287601Y0212255D01*
X0286672Y0210013D01*
X0286672Y0207587D01*
X0287601Y0205345D01*
X0289317Y0203629D01*
X0291559Y0202700D01*
X0293986Y0202700D01*
X0296228Y0203629D01*
X0297694Y0205095D01*
X0299160Y0203629D01*
X0301402Y0202700D01*
X0303828Y0202700D01*
X0306070Y0203629D01*
X0307892Y0205599D02*
X0318450Y0205599D01*
X0318450Y0207198D02*
X0308554Y0207198D01*
X0308715Y0208796D02*
X0318450Y0208796D01*
X0318450Y0210395D02*
X0308557Y0210395D01*
X0307895Y0211993D02*
X0318450Y0211993D01*
X0318450Y0213592D02*
X0306450Y0213592D01*
X0305124Y0215190D02*
X0087730Y0215190D01*
X0089321Y0213592D02*
X0288937Y0213592D01*
X0287492Y0211993D02*
X0090912Y0211993D01*
X0092503Y0210395D02*
X0286830Y0210395D01*
X0286672Y0208796D02*
X0094095Y0208796D01*
X0095687Y0207198D02*
X0181172Y0207198D01*
X0181449Y0207475D02*
X0178125Y0204151D01*
X0178125Y0199449D01*
X0181449Y0196125D01*
X0186151Y0196125D01*
X0189475Y0199449D01*
X0189475Y0204151D01*
X0186151Y0207475D01*
X0181449Y0207475D01*
X0179574Y0205599D02*
X0096900Y0205599D01*
X0097560Y0204001D02*
X0178125Y0204001D01*
X0178125Y0202402D02*
X0097852Y0202402D01*
X0097850Y0200803D02*
X0178125Y0200803D01*
X0178370Y0199205D02*
X0097850Y0199205D01*
X0097850Y0197606D02*
X0179968Y0197606D01*
X0187632Y0197606D02*
X0269968Y0197606D01*
X0269983Y0196008D02*
X0097850Y0196008D01*
X0097850Y0194409D02*
X0268384Y0194409D01*
X0268125Y0192811D02*
X0097850Y0192811D01*
X0097850Y0191212D02*
X0268125Y0191212D01*
X0268125Y0189614D02*
X0170122Y0189614D01*
X0169507Y0189868D02*
X0171738Y0188945D01*
X0173445Y0187238D01*
X0174368Y0185007D01*
X0174368Y0182593D01*
X0173445Y0180362D01*
X0171738Y0178655D01*
X0169507Y0177731D01*
X0167093Y0177731D01*
X0164862Y0178655D01*
X0163155Y0180362D01*
X0162231Y0182593D01*
X0162231Y0185007D01*
X0163155Y0187238D01*
X0164862Y0188945D01*
X0167093Y0189868D01*
X0169507Y0189868D01*
X0166478Y0189614D02*
X0097850Y0189614D01*
X0097850Y0188015D02*
X0163933Y0188015D01*
X0162815Y0186417D02*
X0097850Y0186417D01*
X0097850Y0184818D02*
X0162231Y0184818D01*
X0162231Y0183220D02*
X0097850Y0183220D01*
X0097850Y0181621D02*
X0162634Y0181621D01*
X0163495Y0180023D02*
X0097850Y0180023D01*
X0097850Y0178424D02*
X0165420Y0178424D01*
X0171180Y0178424D02*
X0179150Y0178424D01*
X0178125Y0180023D02*
X0173105Y0180023D01*
X0173966Y0181621D02*
X0178125Y0181621D01*
X0178125Y0183220D02*
X0174368Y0183220D01*
X0174368Y0184818D02*
X0178793Y0184818D01*
X0180392Y0186417D02*
X0173785Y0186417D01*
X0172667Y0188015D02*
X0269559Y0188015D01*
X0270392Y0186417D02*
X0187208Y0186417D01*
X0188807Y0184818D02*
X0268793Y0184818D01*
X0268125Y0183220D02*
X0189475Y0183220D01*
X0189475Y0181621D02*
X0268125Y0181621D01*
X0268125Y0180023D02*
X0189475Y0180023D01*
X0188450Y0178424D02*
X0269150Y0178424D01*
X0270749Y0176826D02*
X0186851Y0176826D01*
X0188398Y0175227D02*
X0269202Y0175227D01*
X0268125Y0173629D02*
X0189475Y0173629D01*
X0189475Y0172030D02*
X0268125Y0172030D01*
X0268125Y0170432D02*
X0189475Y0170432D01*
X0188859Y0168833D02*
X0268741Y0168833D01*
X0270340Y0167235D02*
X0187260Y0167235D01*
X0187989Y0165636D02*
X0269611Y0165636D01*
X0268125Y0164038D02*
X0189475Y0164038D01*
X0189475Y0162439D02*
X0268125Y0162439D01*
X0268125Y0160841D02*
X0189475Y0160841D01*
X0189268Y0159242D02*
X0268332Y0159242D01*
X0269931Y0157644D02*
X0187669Y0157644D01*
X0187580Y0156045D02*
X0270020Y0156045D01*
X0268421Y0154447D02*
X0189179Y0154447D01*
X0190419Y0152848D02*
X0268125Y0152848D01*
X0268125Y0151250D02*
X0192017Y0151250D01*
X0193616Y0149651D02*
X0268125Y0149651D01*
X0277208Y0186417D02*
X0318450Y0186417D01*
X0318450Y0188015D02*
X0278041Y0188015D01*
X0268370Y0199205D02*
X0189230Y0199205D01*
X0189475Y0200803D02*
X0268125Y0200803D01*
X0268125Y0202402D02*
X0189475Y0202402D01*
X0189475Y0204001D02*
X0268125Y0204001D01*
X0269574Y0205599D02*
X0188026Y0205599D01*
X0186428Y0207198D02*
X0271172Y0207198D01*
X0276428Y0207198D02*
X0286834Y0207198D01*
X0287496Y0205599D02*
X0278026Y0205599D01*
X0279475Y0204001D02*
X0288945Y0204001D01*
X0296600Y0204001D02*
X0298788Y0204001D01*
X0298780Y0213592D02*
X0296608Y0213592D01*
X0302432Y0216789D02*
X0086138Y0216789D01*
X0084547Y0218387D02*
X0300834Y0218387D01*
X0299636Y0219986D02*
X0082956Y0219986D01*
X0081365Y0221584D02*
X0298713Y0221584D01*
X0298181Y0223183D02*
X0079773Y0223183D01*
X0078182Y0224781D02*
X0297752Y0224781D01*
X0297657Y0226380D02*
X0076591Y0226380D01*
X0074999Y0227978D02*
X0297657Y0227978D01*
X0297956Y0229577D02*
X0073408Y0229577D01*
X0071030Y0231175D02*
X0298384Y0231175D01*
X0299151Y0232774D02*
X0048100Y0232774D01*
X0048100Y0234372D02*
X0300074Y0234372D01*
X0315476Y0215190D02*
X0318450Y0215190D01*
X0318450Y0216789D02*
X0318168Y0216789D01*
X0180749Y0176826D02*
X0097850Y0176826D01*
X0097850Y0175227D02*
X0179202Y0175227D01*
X0178125Y0173629D02*
X0097850Y0173629D01*
X0097850Y0172030D02*
X0178125Y0172030D01*
X0178125Y0170432D02*
X0097850Y0170432D01*
X0097850Y0168833D02*
X0164751Y0168833D01*
X0164862Y0168945D02*
X0163155Y0167238D01*
X0162231Y0165007D01*
X0162231Y0162593D01*
X0163155Y0160362D01*
X0164862Y0158655D01*
X0167093Y0157731D01*
X0169507Y0157731D01*
X0171738Y0158655D01*
X0173445Y0160362D01*
X0174368Y0162593D01*
X0174368Y0165007D01*
X0173445Y0167238D01*
X0171738Y0168945D01*
X0169507Y0169868D01*
X0167093Y0169868D01*
X0164862Y0168945D01*
X0163154Y0167235D02*
X0097850Y0167235D01*
X0097850Y0165636D02*
X0162492Y0165636D01*
X0162231Y0164038D02*
X0097850Y0164038D01*
X0097850Y0162439D02*
X0162295Y0162439D01*
X0162957Y0160841D02*
X0097850Y0160841D01*
X0097850Y0159242D02*
X0164276Y0159242D01*
X0172324Y0159242D02*
X0178332Y0159242D01*
X0178125Y0160841D02*
X0173643Y0160841D01*
X0174305Y0162439D02*
X0178125Y0162439D01*
X0178125Y0164038D02*
X0174368Y0164038D01*
X0174108Y0165636D02*
X0179611Y0165636D01*
X0180340Y0167235D02*
X0173446Y0167235D01*
X0171849Y0168833D02*
X0178741Y0168833D01*
X0179931Y0157644D02*
X0097850Y0157644D01*
X0097850Y0156045D02*
X0180020Y0156045D01*
X0178421Y0154447D02*
X0097850Y0154447D01*
X0066604Y0213592D02*
X0048100Y0213592D01*
X0048100Y0215190D02*
X0065012Y0215190D01*
X0056691Y0216789D02*
X0048100Y0216789D01*
X0048100Y0218387D02*
X0054828Y0218387D01*
X0053667Y0219986D02*
X0048100Y0219986D01*
X0048100Y0221584D02*
X0053005Y0221584D01*
X0052750Y0223183D02*
X0048100Y0223183D01*
X0048100Y0224781D02*
X0052750Y0224781D01*
X0053155Y0226380D02*
X0048100Y0226380D01*
X0048100Y0227978D02*
X0053817Y0227978D01*
X0055192Y0229577D02*
X0048100Y0229577D01*
X0048100Y0231175D02*
X0057570Y0231175D01*
X0080579Y0058536D02*
X0082994Y0058536D01*
X0084478Y0056937D02*
X0079209Y0056937D01*
X0086077Y0055339D02*
X0063850Y0055339D01*
X0109040Y0037755D02*
X0109664Y0037755D01*
D28*
X0121800Y0059800D03*
X0193800Y0123800D03*
X0211800Y0135800D03*
X0220800Y0089800D03*
D29*
X0071300Y0081800D02*
X0063800Y0081800D01*
M02*
