%
M48
M72
T01C0.02400
T02C0.02756
T03C0.03150
T04C0.03200
T05C0.03937
T06C0.04000
T07C0.04700
T08C0.05118
T09C0.11811
%
T01
X193800Y123800
X211800Y135800
X220800Y89800
X121800Y59800
T02
X298800Y179800
X308800Y179800
X308800Y158800
X298800Y158800
T03
X183800Y201800
X183800Y191800
X183800Y181800
X183800Y171800
X183800Y161800
X183800Y151800
X183800Y141800
X183800Y131800
X273800Y131800
X273800Y141800
X273800Y151800
X273800Y161800
X273800Y171800
X273800Y181800
X273800Y191800
X273800Y201800
X292772Y208800
X302615Y208800
T04
X183800Y95800
X183800Y85800
X183800Y71800
X183800Y61800
X291800Y83800
X291800Y93800
T05
X60800Y223800
X60800Y203800
X168300Y203800
X168300Y183800
X168300Y163800
T06
X303800Y136800
X303800Y126800
X303800Y116800
X299800Y44800
X309800Y44800
X289800Y44800
X266800Y43800
X256800Y43800
X246800Y43800
T07
X71300Y141840
X71300Y121840
X71300Y101800
X71300Y81800
X71300Y61800
X71300Y41800
T08
X106474Y143422
X98600Y119800
X106474Y96178
X106674Y77622
X98800Y54000
X106674Y30378
X154706Y30378
X154706Y78409
X154506Y96178
X154506Y144209
T09
X310300Y226800
X203300Y32300
M30
